<svg width="4096" height="480" viewBox="0 0 4096 480" fill="none" xmlns="http://www.w3.org/2000/svg">
<g clip-path="url(#clip0_915_8991)">
<rect width="4096" height="480" fill="transparent"/>
<g clip-path="url(#clip1_915_8991)">
<path opacity="0.95" d="M1735 301H1755V208H1735V301Z" fill="url(#paint0_linear_915_8991)"/>
<path d="M1529.2 324.591H1579.49V222.481H1529.2V324.591Z" fill="#CCE9EE"/>
<path d="M1529.2 324.591H1579.49V222.481H1529.2V324.591Z" fill="url(#paint1_linear_915_8991)" fill-opacity="0.7"/>
<path d="M1579.57 325.506H1599.36V242.351H1579.57V325.506Z" fill="#CCE9EE"/>
<path d="M1806.41 338.348H1830.71V236.315H1806.41V338.348Z" fill="#089FB7"/>
<path d="M1825.36 338.348H1842.33V236.315H1825.36V338.348Z" fill="#CCE9EE"/>
<path d="M1766.82 325.506H1815.73V224.543H1766.82V325.506Z" fill="#089FB7"/>
<path opacity="0.7" d="M1596.69 309.916H1620.99V183.043H1596.69V309.916Z" fill="#089FB7"/>
<path opacity="0.7" d="M1678.7 324.589H1731.89V117.618H1678.7V324.589Z" fill="url(#paint2_linear_915_8991)"/>
<path d="M1607.92 309.532H1633.6V182.583H1607.92V309.532Z" fill="#CCE9EE"/>
<path d="M1753.83 324.437H1778.9V202.915H1753.83V324.437Z" fill="#CCE9EE"/>
<path d="M1797.24 346.143H1816.73V224.62H1797.24V346.143Z" fill="#CCE9EE"/>
<path d="M1706.97 324.589H1736.55V117.618H1706.97V324.589Z" fill="#CCE9EE"/>
<g opacity="0.75">
<path d="M1678.7 117.695H1725.09V107.148H1683.97L1678.7 117.695Z" fill="#089FB7"/>
<path d="M1678.7 117.695H1725.09V107.148H1683.97L1678.7 117.695Z" fill="url(#paint3_linear_915_8991)"/>
</g>
<path d="M1706.97 117.696H1736.55L1731.36 107.148H1706.97V117.696Z" fill="url(#paint4_linear_915_8991)"/>
<path d="M1706.97 117.696H1736.55L1731.36 107.148H1706.97V117.696Z" fill="url(#paint5_linear_915_8991)"/>
<path opacity="0.55" d="M1718.59 127.632H1711.48V134.74H1718.59V127.632Z" fill="#66BFCD"/>
<path opacity="0.55" d="M1730.82 127.632H1723.71V134.74H1730.82V127.632Z" fill="#66BFCD"/>
<path opacity="0.55" d="M1718.59 139.401H1711.48V146.509H1718.59V139.401Z" fill="#66BFCD"/>
<path opacity="0.55" d="M1730.82 139.401H1723.71V146.509H1730.82V139.401Z" fill="#66BFCD"/>
<path opacity="0.55" d="M1718.59 151.248H1711.48V158.355H1718.59V151.248Z" fill="#66BFCD"/>
<path opacity="0.55" d="M1730.82 151.248H1723.71V158.355H1730.82V151.248Z" fill="#66BFCD"/>
<path opacity="0.55" d="M1718.59 163.019H1711.48V170.127H1718.59V163.019Z" fill="#66BFCD"/>
<path opacity="0.55" d="M1730.82 163.019H1723.71V170.127H1730.82V163.019Z" fill="#66BFCD"/>
<path opacity="0.55" d="M1718.59 174.863H1711.48V181.971H1718.59V174.863Z" fill="#66BFCD"/>
<path opacity="0.55" d="M1730.82 174.863H1723.71V181.971H1730.82V174.863Z" fill="#66BFCD"/>
<path opacity="0.55" d="M1718.59 186.635H1711.48V193.743H1718.59V186.635Z" fill="#66BFCD"/>
<path opacity="0.55" d="M1730.82 186.635H1723.71V193.743H1730.82V186.635Z" fill="#66BFCD"/>
<path opacity="0.55" d="M1718.59 198.481H1711.48V205.589H1718.59V198.481Z" fill="#66BFCD"/>
<path opacity="0.55" d="M1730.82 198.481H1723.71V205.589H1730.82V198.481Z" fill="#66BFCD"/>
<path opacity="0.55" d="M1718.59 210.251H1711.48V217.359H1718.59V210.251Z" fill="#66BFCD"/>
<path opacity="0.55" d="M1730.82 210.251H1723.71V217.359H1730.82V210.251Z" fill="#66BFCD"/>
<path opacity="0.55" d="M1718.59 222.099H1711.48V229.207H1718.59V222.099Z" fill="#66BFCD"/>
<path opacity="0.55" d="M1730.82 222.099H1723.71V229.207H1730.82V222.099Z" fill="#66BFCD"/>
<path opacity="0.55" d="M1811.53 230.124H1804.42V237.231H1811.53V230.124Z" fill="#66BFCD"/>
<path opacity="0.55" d="M1811.53 242.429H1804.42V249.537H1811.53V242.429Z" fill="#66BFCD"/>
<path opacity="0.55" d="M1811.53 254.657H1804.42V261.765H1811.53V254.657Z" fill="#66BFCD"/>
<path opacity="0.65" d="M1690.54 127.632H1683.43V134.74H1690.54V127.632Z" fill="#078BA8"/>
<path opacity="0.65" d="M1702.77 127.632H1695.66V134.74H1702.77V127.632Z" fill="#078BA8"/>
<path opacity="0.65" d="M1690.54 139.401H1683.43V146.509H1690.54V139.401Z" fill="#078BA8"/>
<path opacity="0.65" d="M1702.77 139.401H1695.66V146.509H1702.77V139.401Z" fill="#078BA8"/>
<path opacity="0.65" d="M1690.54 151.248H1683.43V158.355H1690.54V151.248Z" fill="#078BA8"/>
<path opacity="0.65" d="M1702.77 151.248H1695.66V158.355H1702.77V151.248Z" fill="#078BA8"/>
<path opacity="0.65" d="M1690.54 163.019H1683.43V170.127H1690.54V163.019Z" fill="#078BA8"/>
<path opacity="0.65" d="M1570.85 230.582H1562.6V238.836H1570.85V230.582Z" fill="#078BA8"/>
<path opacity="0.65" d="M1556.94 230.582H1548.69V238.836H1556.94V230.582Z" fill="#078BA8"/>
<path opacity="0.65" d="M1570.85 243.575H1562.6V251.83H1570.85V243.575Z" fill="#078BA8"/>
<path opacity="0.65" d="M1556.94 243.575H1548.69V251.829H1556.94V243.575Z" fill="#078BA8"/>
<path opacity="0.65" d="M1570.85 256.567H1562.6V264.821H1570.85V256.567Z" fill="#078BA8"/>
<path opacity="0.65" d="M1556.94 256.567H1548.69V264.821H1556.94V256.567Z" fill="#078BA8"/>
<path opacity="0.65" d="M1570.85 269.56H1562.6V277.814H1570.85V269.56Z" fill="#078BA8"/>
<path opacity="0.65" d="M1556.94 269.56H1548.69V277.815H1556.94V269.56Z" fill="#078BA8"/>
<path opacity="0.65" d="M1570.85 282.553H1562.6V290.808H1570.85V282.553Z" fill="#078BA8"/>
<path opacity="0.65" d="M1557.25 282.553H1549V290.808H1557.25V282.553Z" fill="#078BA8"/>
<path opacity="0.65" d="M1702.77 163.019H1695.66V170.127H1702.77V163.019Z" fill="#078BA8"/>
<path opacity="0.65" d="M1690.54 174.863H1683.43V181.971H1690.54V174.863Z" fill="#078BA8"/>
<path opacity="0.65" d="M1702.77 174.863H1695.66V181.971H1702.77V174.863Z" fill="#078BA8"/>
<path opacity="0.65" d="M1690.54 186.635H1683.43V193.743H1690.54V186.635Z" fill="#078BA8"/>
<path opacity="0.65" d="M1702.77 186.635H1695.66V193.743H1702.77V186.635Z" fill="#078BA8"/>
<path opacity="0.65" d="M1690.54 198.481H1683.43V205.589H1690.54V198.481Z" fill="#078BA8"/>
<path opacity="0.65" d="M1702.77 198.481H1695.66V205.589H1702.77V198.481Z" fill="#078BA8"/>
<path opacity="0.65" d="M1690.54 210.251H1683.43V217.359H1690.54V210.251Z" fill="#078BA8"/>
<path opacity="0.65" d="M1702.77 210.251H1695.66V217.359H1702.77V210.251Z" fill="#078BA8"/>
<path opacity="0.65" d="M1690.54 222.099H1683.43V229.207H1690.54V222.099Z" fill="#078BA8"/>
<path opacity="0.65" d="M1702.77 222.099H1695.66V229.207H1702.77V222.099Z" fill="#078BA8"/>
<path opacity="0.55" d="M1718.59 233.868H1711.48V240.975H1718.59V233.868Z" fill="#66BFCD"/>
<path opacity="0.55" d="M1730.82 233.868H1723.71V240.976H1730.82V233.868Z" fill="#66BFCD"/>
<path opacity="0.65" d="M1690.54 233.868H1683.43V240.976H1690.54V233.868Z" fill="#078BA8"/>
<path opacity="0.65" d="M1702.77 233.868H1695.66V240.976H1702.77V233.868Z" fill="#078BA8"/>
<path opacity="0.55" d="M1718.59 245.714H1711.48V252.822H1718.59V245.714Z" fill="#66BFCD"/>
<path opacity="0.55" d="M1730.82 245.714H1723.71V252.822H1730.82V245.714Z" fill="#66BFCD"/>
<path opacity="0.65" d="M1690.54 245.714H1683.43V252.822H1690.54V245.714Z" fill="#078BA8"/>
<path opacity="0.65" d="M1702.77 245.714H1695.66V252.822H1702.77V245.714Z" fill="#078BA8"/>
<path opacity="0.55" d="M1718.59 257.486H1711.48V264.594H1718.59V257.486Z" fill="#66BFCD"/>
<path opacity="0.55" d="M1730.82 257.486H1723.71V264.594H1730.82V257.486Z" fill="#66BFCD"/>
<path opacity="0.65" d="M1690.54 257.486H1683.43V264.594H1690.54V257.486Z" fill="#078BA8"/>
<path opacity="0.65" d="M1702.77 257.486H1695.66V264.594H1702.77V257.486Z" fill="#078BA8"/>
<path opacity="0.55" d="M1718.59 269.331H1711.48V276.439H1718.59V269.331Z" fill="#66BFCD"/>
<path opacity="0.55" d="M1730.82 269.331H1723.71V276.439H1730.82V269.331Z" fill="#66BFCD"/>
<path opacity="0.65" d="M1690.54 269.331H1683.43V276.439H1690.54V269.331Z" fill="#078BA8"/>
<path opacity="0.65" d="M1702.77 269.331H1695.66V276.439H1702.77V269.331Z" fill="#078BA8"/>
<path d="M1633.53 325.506H1653.32V242.351H1633.53V325.506Z" fill="#089FB7"/>
<path opacity="0.65" d="M1598.98 199.169H1604.48V187.552H1598.98V199.169Z" fill="#078BA8"/>
<path opacity="0.65" d="M1598.98 214.532H1604.48V202.915H1598.98V214.532Z" fill="#078BA8"/>
<path opacity="0.65" d="M1598.98 229.893H1604.48V218.276H1598.98V229.893Z" fill="#078BA8"/>
<path opacity="0.65" d="M1598.98 245.255H1604.48V233.638H1598.98V245.255Z" fill="#078BA8"/>
<path opacity="0.55" d="M1614.8 199.169H1620.38V187.552H1614.8V199.169Z" fill="#66BFCD"/>
<path opacity="0.55" d="M1614.8 214.532H1620.38V202.915H1614.8V214.532Z" fill="#66BFCD"/>
<path opacity="0.55" d="M1614.8 229.893H1620.38V218.276H1614.8V229.893Z" fill="#66BFCD"/>
<path opacity="0.55" d="M1614.8 245.255H1620.38V233.638H1614.8V245.255Z" fill="#66BFCD"/>
<path opacity="0.55" d="M1623.97 199.169H1629.48V187.552H1623.97V199.169Z" fill="#66BFCD"/>
<path opacity="0.55" d="M1623.97 214.532H1629.48V202.915H1623.97V214.532Z" fill="#66BFCD"/>
<path opacity="0.55" d="M1623.97 229.893H1629.48V218.276H1623.97V229.893Z" fill="#66BFCD"/>
<path opacity="0.55" d="M1623.97 245.255H1629.48V233.638H1623.97V245.255Z" fill="#66BFCD"/>
<path opacity="0.7" d="M1651.56 305.787H1676.79V189.691H1651.56V305.787Z" fill="url(#paint6_linear_915_8991)"/>
<path d="M1658.06 305.787H1683.28V189.691H1658.06V305.787Z" fill="#CCE9EE"/>
<path opacity="0.7" d="M1656.76 178.228H1674.26V144.37H1656.76V178.228Z" fill="url(#paint7_linear_915_8991)"/>
<path d="M1661.27 178.228H1675.56V144.37H1661.27V178.228Z" fill="url(#paint8_linear_915_8991)"/>
<path d="M1648.66 191.22H1686.72V183.5H1648.66V191.22Z" fill="url(#paint9_linear_915_8991)"/>
<path d="M1650.95 183.577H1684.35V176.01H1650.95V183.577Z" fill="url(#paint10_linear_915_8991)"/>
<path opacity="0.7" d="M1648.66 191.22H1661.96V183.5H1648.66V191.22Z" fill="url(#paint11_linear_915_8991)"/>
<path d="M1736.48 208.035H1782.72V200.316H1736.48V208.035Z" fill="url(#paint12_linear_915_8991)"/>
<path d="M1736.48 208.035H1782.72V200.316H1736.48V208.035Z" fill="url(#paint13_linear_915_8991)"/>
<g opacity="0.75">
<path d="M1736.48 208.035H1753.9V200.316H1736.48L1736.48 208.035Z" fill="url(#paint14_linear_915_8991)"/>
<path d="M1736.48 208.035H1753.9V200.316H1736.48L1736.48 208.035Z" fill="url(#paint15_linear_915_8991)"/>
</g>
<path d="M1736.55 200.315H1777.52V195.042H1736.55V200.315Z" fill="url(#paint16_linear_915_8991)"/>
<path d="M1736.55 200.315H1777.52V195.042H1736.55V200.315Z" fill="url(#paint17_linear_915_8991)"/>
<g opacity="0.7">
<path d="M1737 200.5H1753V195H1737V200.5Z" fill="url(#paint18_linear_915_8991)"/>
<path d="M1737 200.5H1753V195H1737V200.5Z" fill="url(#paint19_linear_915_8991)"/>
<path d="M1737 200.5H1753V195H1737V200.5Z" fill="url(#paint20_linear_915_8991)"/>
</g>
<path opacity="0.7" d="M1649.42 183.577H1661.19V176.01H1649.42V183.577Z" fill="url(#paint21_linear_915_8991)"/>
<path opacity="0.8" d="M1678.39 272.847H1665.78V300.438H1678.39V272.847Z" fill="#66BFCD"/>
<path opacity="0.55" d="M1774.61 270.861H1758.72V298.452H1774.61V270.861Z" fill="#66BFCD"/>
<path opacity="0.55" d="M1774.39 224.314H1765.44V251.905H1774.39V224.314Z" fill="#66BFCD"/>
<path opacity="0.55" d="M1763 225H1754V229H1763V225Z" fill="#66BFCD"/>
<path opacity="0.55" d="M1754 225H1745V229H1754V225Z" fill="#078BA8"/>
<path opacity="0.55" d="M1763 232H1754V237H1763V232Z" fill="#66BFCD"/>
<path opacity="0.55" d="M1754 232H1745V237H1754V232Z" fill="#078BA8"/>
<path opacity="0.55" d="M1763 240H1754V244H1763V240Z" fill="#66BFCD"/>
<path opacity="0.55" d="M1754 240H1745V244H1754V240Z" fill="#078BA8"/>
<path opacity="0.55" d="M1763 248H1754V252H1763V248Z" fill="#66BFCD"/>
<path opacity="0.55" d="M1754 248H1745V252H1754V248Z" fill="#078BA8"/>
<path d="M1633.68 182.966C1633.68 178.304 1625.5 171.502 1615.41 171.502C1605.32 171.502 1597.15 178.304 1597.15 182.966H1633.68Z" fill="url(#paint22_linear_915_8991)"/>
<path d="M1633.68 182.966C1633.68 178.304 1625.5 171.502 1615.41 171.502C1605.32 171.502 1597.15 178.304 1597.15 182.966H1633.68Z" fill="url(#paint23_linear_915_8991)"/>
<path opacity="0.55" d="M1670.29 194.965H1664.63V203.067H1670.29V194.965Z" fill="#66BFCD"/>
<path opacity="0.55" d="M1679.46 194.965H1673.8V203.067H1679.46V194.965Z" fill="#66BFCD"/>
<path opacity="0.55" d="M1670.29 205.894H1664.63V213.995H1670.29V205.894Z" fill="#66BFCD"/>
<path opacity="0.55" d="M1679.46 205.894H1673.8V213.995H1679.46V205.894Z" fill="#66BFCD"/>
<path opacity="0.55" d="M1670.29 216.749H1664.63V224.85H1670.29V216.749Z" fill="#66BFCD"/>
<path opacity="0.55" d="M1679.46 216.749H1673.8V224.85H1679.46V216.749Z" fill="#66BFCD"/>
<path opacity="0.55" d="M1670.29 227.601H1664.63V235.703H1670.29V227.601Z" fill="#66BFCD"/>
<path opacity="0.55" d="M1679.46 227.601H1673.8V235.703H1679.46V227.601Z" fill="#66BFCD"/>
<path opacity="0.55" d="M1670.29 238.454H1664.63V246.555H1670.29V238.454Z" fill="#66BFCD"/>
<path opacity="0.55" d="M1679.46 238.454H1673.8V246.555H1679.46V238.454Z" fill="#66BFCD"/>
<path opacity="0.55" d="M1670.29 249.306H1664.63V257.408H1670.29V249.306Z" fill="#66BFCD"/>
<path opacity="0.25" d="M1626.49 182.66L1633.07 182.966L1634.06 307.852H1613.73L1626.49 182.66Z" fill="url(#paint24_linear_915_8991)"/>
<path opacity="0.8" d="M1679.46 249.306H1673.8V257.408H1679.46V249.306Z" fill="#66BFCD"/>
<path d="M1626.04 315.341H1651.64V259.166H1626.04V315.341Z" fill="#CCE9EE"/>
<path opacity="0.8" d="M1643.77 297.992H1648.35V264.822H1643.77V297.992Z" fill="#99D5DE"/>
<path opacity="0.8" d="M1636.51 297.992H1641.09V264.822H1636.51V297.992Z" fill="#99D5DE"/>
<path opacity="0.25" d="M1736.55 208.036V296.923L1707.43 299.292L1736.55 208.036Z" fill="url(#paint25_linear_915_8991)"/>
<path opacity="0.5" d="M1651.87 259.625V307.852H1640.71L1651.87 259.625Z" fill="url(#paint26_linear_915_8991)"/>
</g>
<path d="M1786.86 291.01H2561.39L2264.74 91.907L2120.9 186.533L2091.5 163.596L1989.75 217.35L1957.42 206.64L1786.86 291.01Z" fill="#99D5DE"/>
<path d="M2087.41 209.57L2095.95 176.125L2097.87 193.201L2106.15 162.687L2107.21 183.299L2117.16 153.492L2118.48 176.378L2124.64 154.704L2126.76 171.275L2131.51 150.359L2133.43 167.486L2139.49 145.914L2141.11 162.484L2150.05 131.162L2150 156.27L2155.21 139.346L2156.62 151.976L2164.91 125.958L2166.22 146.166L2175.41 120.956L2176.32 139.75L2186.02 108.175L2185.97 136.062L2192.09 114.136L2194.56 130.909L2200.62 110.751L2202.39 128.08L2208.25 104.436L2209.72 129.494L2087.41 209.57Z" fill="#305263"/>
<path d="M2087.41 209.57L2095.95 176.125L2097.87 193.201L2106.15 162.687L2107.21 183.299L2117.16 153.492L2118.48 176.378L2124.64 154.704L2126.76 171.275L2131.51 150.359L2133.43 167.486L2139.49 145.914L2141.11 162.484L2150.05 131.162L2150 156.27L2155.21 139.346L2156.62 151.976L2164.91 125.958L2166.22 146.166L2175.41 120.956L2176.32 139.75L2186.02 108.175L2185.97 136.062L2192.09 114.136L2194.56 130.909L2200.62 110.751L2202.39 128.08L2208.25 104.436L2209.72 129.494L2087.41 209.57Z" fill="url(#paint27_linear_915_8991)"/>
<path opacity="0.22" d="M2294.95 111.913L2290.3 137.073L2213.41 291.01H2222.35L2293.78 139.245L2298.03 114.49L2294.95 111.913Z" fill="#089FB7"/>
<path opacity="0.22" d="M2313.03 124.341L2311.87 151.623L2248.87 291.01H2252.66L2313.69 152.38L2314.35 125.301L2313.03 124.341Z" fill="#089FB7"/>
<path opacity="0.13" d="M2101.81 171.78L2097.31 187.341L2097.26 187.492L2097.16 187.593L2080.94 207.6L2079.98 206.892L2095.95 186.684L2095.79 186.937L2100.69 170.871L2101.81 171.78Z" fill="#089FB7"/>
<path opacity="0.13" d="M2110.8 178.348C2110.44 179.712 2110.09 181.076 2109.69 182.44C2109.33 183.804 2108.93 185.168 2108.53 186.482C2108.12 187.846 2107.72 189.21 2107.26 190.524C2106.81 191.888 2106.35 193.201 2105.9 194.515V194.565L2089.83 214.673L2089.53 214.471L2105.59 194.363L2105.54 194.414C2105.85 193.05 2106.25 191.686 2106.61 190.322C2107.01 188.957 2107.41 187.593 2107.82 186.28C2108.22 184.916 2108.63 183.602 2109.08 182.238C2109.54 180.874 2109.94 179.561 2110.44 178.247L2110.8 178.348Z" fill="#089FB7"/>
<path opacity="0.13" d="M2112.57 179.308C2111.91 182.036 2111.15 184.764 2110.34 187.492C2109.54 190.17 2108.68 192.898 2107.67 195.525V195.576L2091.6 215.683L2091.3 215.481L2107.36 195.374L2107.31 195.424C2107.92 192.645 2108.73 189.968 2109.54 187.24C2110.34 184.562 2111.25 181.834 2112.21 179.207L2112.57 179.308Z" fill="#089FB7"/>
<path d="M1965.96 238.67L1971.16 218.209L1972.32 228.616L1977.37 209.974L1978.03 222.554L1984.04 204.316L1984.9 218.31L1988.59 205.074L1989.9 215.178L1992.78 202.396L1993.99 212.854L1997.68 199.668L1998.69 209.772L2004.1 190.625V205.983L2007.23 195.626L2008.14 203.305L2013.14 187.442L2013.95 199.769L2019.56 184.36L2020.16 195.828L2026.02 176.529V193.555L2029.71 180.167L2031.23 190.372L2034.92 178.045L2036.03 188.654L2039.61 174.205L2040.52 189.513L1965.96 238.67Z" fill="#305263"/>
<path d="M1965.96 238.67L1971.16 218.209L1972.32 228.616L1977.37 209.974L1978.03 222.554L1984.04 204.316L1984.9 218.31L1988.59 205.074L1989.9 215.178L1992.78 202.396L1993.99 212.854L1997.68 199.668L1998.69 209.772L2004.1 190.625V205.983L2007.23 195.626L2008.14 203.305L2013.14 187.442L2013.95 199.769L2019.56 184.36L2020.16 195.828L2026.02 176.529V193.555L2029.71 180.167L2031.23 190.372L2034.92 178.045L2036.03 188.654L2039.61 174.205L2040.52 189.513L1965.96 238.67Z" fill="url(#paint28_linear_915_8991)"/>
<path fill-rule="evenodd" clip-rule="evenodd" d="M1997.63 291.008L1997.63 291.01H1901.39H1897.95H1786.61L1957.42 206.64L1939.08 219.977L1954.94 216.138L1925.69 239.226L1943.12 232.506L1914.98 253.877L2091.5 163.596L2084.58 172.084L2090.74 169.204L2075.59 186.482L2086.4 180.571L2063.21 199.971L2081.7 190.423L2039.68 240.694L2264.74 91.907L2228.51 132.677L2260.79 111.105L2176.27 291.01H1997.63L1997.63 291.008Z" fill="#089FB7"/>
<path d="M2129.09 297.596L2152.71 210.965L2158.73 241.747L2167.34 198.927L2174.5 243.423L2182.58 203.727L2190.04 237.023L2199.26 192.146L2211.99 246.014L2219.3 211.27L2233.01 295.539L2129.09 297.596Z" fill="url(#paint29_linear_915_8991)"/>
<path d="M2129.09 297.596L2152.71 210.965L2158.73 241.747L2167.34 198.927L2174.5 243.423L2182.58 203.727L2190.04 237.023L2199.26 192.146L2211.99 246.014L2219.3 211.27L2233.01 295.539L2129.09 297.596Z" fill="url(#paint30_linear_915_8991)"/>
<path d="M2213.89 276.872L2237.51 190.241L2243.53 221.023L2252.14 178.203L2259.23 222.775L2267.38 183.003L2274.84 216.299L2284.06 171.421L2296.71 225.29L2304.1 190.546L2317.82 274.815L2213.89 276.872Z" fill="url(#paint31_linear_915_8991)"/>
<path d="M1557.8 313.902L1571.28 264.376L1574.71 281.977L1579.66 257.443L1583.7 282.967L1588.35 260.186L1592.62 279.234L1597.95 253.557L1605.19 284.415L1609.38 264.529L1617.23 312.759L1557.8 313.902Z" fill="url(#paint32_linear_915_8991)"/>
<path d="M1557.8 313.902L1571.28 264.376L1574.71 281.977L1579.66 257.443L1583.7 282.967L1588.35 260.186L1592.62 279.234L1597.95 253.557L1605.19 284.415L1609.38 264.529L1617.23 312.759L1557.8 313.902Z" fill="url(#paint33_linear_915_8991)"/>
<path opacity="0.22" d="M2317.66 282.51L2344.03 212.794L2320.71 283.196L2317.66 282.51Z" fill="url(#paint34_linear_915_8991)"/>
<path d="M1457.15 135.382L1450.82 174.774L1455.47 170.126L1450.97 176.831L1447.93 190.317L1452.27 187.422L1447.93 192.146L1445.11 209.975L1451.43 204.946L1444.73 212.642L1440.84 235.576L1445.34 230.547L1438.71 249.062L1443.13 245.938L1428.34 277.405L1460.96 272.986L1487.09 276.491L1475.43 259.652L1470.56 255.538L1474.9 258.129L1471.32 243.119L1463.24 236.338L1470.56 240.604L1469.41 222.394L1463.85 216.604L1469.72 220.566L1468.73 210.356L1461.49 204.794L1468.88 208.756L1465.45 192.755L1460.96 187.193L1466.14 189.708L1462.63 175.688L1458.97 170.05L1462.78 172.869L1457.15 135.382Z" fill="#00283D"/>
<path d="M1457.15 135.382L1450.82 174.774L1455.47 170.126L1450.97 176.831L1447.93 190.317L1452.27 187.422L1447.93 192.146L1445.11 209.975L1451.43 204.946L1444.73 212.642L1440.84 235.576L1445.34 230.547L1438.71 249.062L1443.13 245.938L1428.34 277.405L1460.96 272.986L1487.09 276.491L1475.43 259.652L1470.56 255.538L1474.9 258.129L1471.32 243.119L1463.24 236.338L1470.56 240.604L1469.41 222.394L1463.85 216.604L1469.72 220.566L1468.73 210.356L1461.49 204.794L1468.88 208.756L1465.45 192.755L1460.96 187.193L1466.14 189.708L1462.63 175.688L1458.97 170.05L1462.78 172.869L1457.15 135.382Z" fill="url(#paint35_linear_915_8991)"/>
<path d="M1489.76 171.955L1483.43 211.27L1488.08 206.698L1483.58 213.403L1480.54 226.889L1484.88 223.994L1480.54 228.718L1477.72 246.547L1484.04 241.518L1477.34 249.214L1473.45 272.148L1477.95 267.119L1471.32 285.634L1475.74 282.434L1461.03 313.978L1493.57 309.558L1519.78 312.987L1508.04 296.225L1503.17 292.11L1507.51 294.701L1504 279.691L1495.85 272.91L1503.24 277.1L1502.1 258.967L1496.54 253.176L1502.33 257.138L1501.34 246.928L1494.1 241.366L1501.49 245.328L1498.06 229.328L1493.57 223.766L1498.75 226.28L1495.24 212.26L1491.58 206.622L1495.47 209.441L1489.76 171.955Z" fill="url(#paint36_linear_915_8991)"/>
<path d="M1489.76 171.955L1483.43 211.27L1488.08 206.698L1483.58 213.403L1480.54 226.889L1484.88 223.994L1480.54 228.718L1477.72 246.547L1484.04 241.518L1477.34 249.214L1473.45 272.148L1477.95 267.119L1471.32 285.634L1475.74 282.434L1461.03 313.978L1493.57 309.558L1519.78 312.987L1508.04 296.225L1503.17 292.11L1507.51 294.701L1504 279.691L1495.85 272.91L1503.24 277.1L1502.1 258.967L1496.54 253.176L1502.33 257.138L1501.34 246.928L1494.1 241.366L1501.49 245.328L1498.06 229.328L1493.57 223.766L1498.75 226.28L1495.24 212.26L1491.58 206.622L1495.47 209.441L1489.76 171.955Z" fill="url(#paint37_linear_915_8991)"/>
<path d="M1410.36 169.517L1403.96 208.908L1408.69 204.26L1404.19 210.965L1401.07 224.451L1405.49 221.556L1401.07 226.28L1398.32 244.109L1404.57 239.08L1397.87 246.776L1393.98 269.71L1398.55 264.681L1391.92 283.196L1396.27 280.072L1381.56 311.54L1414.1 307.12L1440.31 310.625L1428.65 293.787L1423.7 289.672L1428.12 292.263L1424.54 277.253L1416.46 270.472L1423.77 274.739L1422.63 256.529L1417.07 250.814L1422.86 254.7L1421.94 244.49L1414.71 238.928L1422.02 242.89L1418.59 226.89L1414.1 221.328L1419.35 223.842L1415.85 209.822L1412.12 204.184L1416 207.003L1410.36 169.517Z" fill="#00283D"/>
<path d="M1410.36 169.517L1403.96 208.908L1408.69 204.26L1404.19 210.965L1401.07 224.451L1405.49 221.556L1401.07 226.28L1398.32 244.109L1404.57 239.08L1397.87 246.776L1393.98 269.71L1398.55 264.681L1391.92 283.196L1396.27 280.072L1381.56 311.54L1414.1 307.12L1440.31 310.625L1428.65 293.787L1423.7 289.672L1428.12 292.263L1424.54 277.253L1416.46 270.472L1423.77 274.739L1422.63 256.529L1417.07 250.814L1422.86 254.7L1421.94 244.49L1414.71 238.928L1422.02 242.89L1418.59 226.89L1414.1 221.328L1419.35 223.842L1415.85 209.822L1412.12 204.184L1416 207.003L1410.36 169.517Z" fill="url(#paint38_linear_915_8991)"/>
<path d="M2452.91 127.077L2447.42 148.564L2451.46 144.602L2447.57 150.316L2444.98 161.897L2448.72 159.459L2444.98 163.497L2442.54 178.812L2447.95 174.469L2442.24 181.098L2438.89 200.832L2442.77 196.489L2437.06 212.413L2440.87 209.67L2428.22 236.719L2456.18 232.909L2478.66 235.88L2468.6 221.48L2464.41 217.899L2468.14 220.185L2465.1 207.308L2458.16 201.518L2464.41 205.099L2463.42 189.479L2458.7 184.527L2463.65 187.879L2462.81 179.193L2456.64 174.317L2462.96 177.822L2459.99 164.031L2456.18 159.231L2460.6 161.44L2457.63 149.402L2454.43 144.526L2457.78 146.964L2452.91 127.077Z" fill="url(#paint39_linear_915_8991)"/>
<path d="M2452.91 127.077L2447.42 148.564L2451.46 144.602L2447.57 150.316L2444.98 161.897L2448.72 159.459L2444.98 163.497L2442.54 178.812L2447.95 174.469L2442.24 181.098L2438.89 200.832L2442.77 196.489L2437.06 212.413L2440.87 209.67L2428.22 236.719L2456.18 232.909L2478.66 235.88L2468.6 221.48L2464.41 217.899L2468.14 220.185L2465.1 207.308L2458.16 201.518L2464.41 205.099L2463.42 189.479L2458.7 184.527L2463.65 187.879L2462.81 179.193L2456.64 174.317L2462.96 177.822L2459.99 164.031L2456.18 159.231L2460.6 161.44L2457.63 149.402L2454.43 144.526L2457.78 146.964L2452.91 127.077Z" fill="url(#paint40_linear_915_8991)"/>
<path d="M2507.61 139.344L2502.2 160.831L2506.24 156.869L2502.36 162.583L2499.69 174.164L2503.5 171.726L2499.69 175.764L2497.33 191.079L2502.74 186.736L2496.95 193.365L2493.67 213.099L2497.48 208.756L2491.84 224.68L2495.57 221.937L2482.93 248.985L2510.89 245.176L2533.37 248.147L2523.39 233.747L2519.12 230.166L2522.93 232.452L2519.8 219.575L2512.87 213.784L2519.19 217.365L2518.2 201.746L2513.4 196.793L2518.43 200.146L2517.59 191.46L2511.35 186.66L2517.75 190.089L2514.78 176.298L2510.89 171.498L2515.38 173.707L2512.41 161.669L2509.21 156.792L2512.49 159.231L2507.61 139.344Z" fill="url(#paint41_linear_915_8991)"/>
<path d="M2507.61 139.344L2502.2 160.831L2506.24 156.869L2502.36 162.583L2499.69 174.164L2503.5 171.726L2499.69 175.764L2497.33 191.079L2502.74 186.736L2496.95 193.365L2493.67 213.099L2497.48 208.756L2491.84 224.68L2495.57 221.937L2482.93 248.985L2510.89 245.176L2533.37 248.147L2523.39 233.747L2519.12 230.166L2522.93 232.452L2519.8 219.575L2512.87 213.784L2519.19 217.365L2518.2 201.746L2513.4 196.793L2518.43 200.146L2517.59 191.46L2511.35 186.66L2517.75 190.089L2514.78 176.298L2510.89 171.498L2515.38 173.707L2512.41 161.669L2509.21 156.792L2512.49 159.231L2507.61 139.344Z" fill="url(#paint42_linear_915_8991)"/>
<path d="M2482.7 99.343L2477.21 120.829L2481.25 116.867L2477.36 122.582L2474.7 134.163L2478.51 131.725L2474.7 135.763L2472.34 151.078L2477.75 146.735L2471.96 153.364L2468.68 173.097L2472.49 168.754L2466.85 184.679L2470.58 181.936L2457.94 208.984L2485.9 205.175L2508.38 208.146L2498.39 193.746L2494.13 190.165L2497.94 192.45L2494.89 179.574L2487.88 173.707L2494.2 177.364L2493.21 161.745L2488.41 156.792L2493.44 160.145L2492.6 151.459L2486.36 146.582L2492.76 150.011L2489.78 136.296L2485.9 131.496L2490.39 133.706L2487.42 121.667L2484.22 116.791L2487.5 119.229L2482.7 99.343Z" fill="url(#paint43_linear_915_8991)"/>
<path d="M2482.7 99.343L2477.21 120.829L2481.25 116.867L2477.36 122.582L2474.7 134.163L2478.51 131.725L2474.7 135.763L2472.34 151.078L2477.75 146.735L2471.96 153.364L2468.68 173.097L2472.49 168.754L2466.85 184.679L2470.58 181.936L2457.94 208.984L2485.9 205.175L2508.38 208.146L2498.39 193.746L2494.13 190.165L2497.94 192.45L2494.89 179.574L2487.88 173.707L2494.2 177.364L2493.21 161.745L2488.41 156.792L2493.44 160.145L2492.6 151.459L2486.36 146.582L2492.76 150.011L2489.78 136.296L2485.9 131.496L2490.39 133.706L2487.42 121.667L2484.22 116.791L2487.5 119.229L2482.7 99.343Z" fill="url(#paint44_linear_915_8991)"/>
<path d="M2415.19 89L2406.2 130.296L2412.83 123.744L2406.43 133.268L2402.09 152.392L2408.26 148.278L2402.09 154.983L2398.12 180.355L2407.04 173.193L2397.51 184.165L2392.03 216.775L2398.43 209.613L2388.98 235.899L2395.23 231.404L2374.35 276.129L2420.6 269.881L2457.78 274.834L2441.17 250.985L2434.16 245.042L2440.41 248.776L2435.38 227.442L2423.88 217.842L2434.32 223.785L2432.64 198.032L2424.79 189.803L2433.02 195.441L2431.65 180.888L2421.36 172.964L2431.88 178.679L2426.92 155.897L2420.6 147.973L2427.99 151.554L2423.04 131.668L2417.78 123.591L2423.27 127.706L2415.19 89Z" fill="url(#paint45_linear_915_8991)"/>
<path d="M2415.19 89L2406.2 130.296L2412.83 123.744L2406.43 133.268L2402.09 152.392L2408.26 148.278L2402.09 154.983L2398.12 180.355L2407.04 173.193L2397.51 184.165L2392.03 216.775L2398.43 209.613L2388.98 235.899L2395.23 231.404L2374.35 276.129L2420.6 269.881L2457.78 274.834L2441.17 250.985L2434.16 245.042L2440.41 248.776L2435.38 227.442L2423.88 217.842L2434.32 223.785L2432.64 198.032L2424.79 189.803L2433.02 195.441L2431.65 180.888L2421.36 172.964L2431.88 178.679L2426.92 155.897L2420.6 147.973L2427.99 151.554L2423.04 131.668L2417.78 123.591L2423.27 127.706L2415.19 89Z" fill="url(#paint46_linear_915_8991)"/>
<path d="M1297.6 266.662C1243.12 276.872 987.875 393.066 987.875 393.066V801.306H2968.2V383.084C2964.92 380.494 2614.43 179.041 2443.92 200.679C2324.52 215.842 2227.68 292.034 2118.04 251.576C2021.05 215.766 1953.39 240.376 1898.61 257.214C1898.61 257.214 1729.91 302.016 1628.27 294.853C1507.58 286.472 1437.94 240.3 1297.6 266.662Z" fill="url(#paint47_linear_915_8991)"/>
<path d="M2627.24 292.872L2620 346.664H2634.47L2627.24 292.872Z" fill="url(#paint48_linear_915_8991)"/>
<path d="M2627.24 292.872L2620 346.664H2634.47L2627.24 292.872Z" fill="url(#paint49_linear_915_8991)"/>
<path d="M2689.71 313.673L2685.6 343.921H2693.75L2689.71 313.673Z" fill="url(#paint50_linear_915_8991)"/>
<path d="M2543.19 307.273L2538.24 343.922H2548.15L2543.19 307.273Z" fill="url(#paint51_linear_915_8991)"/>
<path d="M2543.19 307.273L2538.24 343.922H2548.15L2543.19 307.273Z" fill="url(#paint52_linear_915_8991)"/>
<path d="M2612.61 345.521L2604.38 284.72L2598.36 329.445L2593.48 293.634L2586.24 347.35H2600.8L2600.49 345.521H2612.61Z" fill="url(#paint53_linear_915_8991)"/>
<path d="M2612.61 345.521L2604.38 284.72L2598.36 329.445L2593.48 293.634L2586.24 347.35H2600.8L2600.49 345.521H2612.61Z" fill="url(#paint54_linear_915_8991)"/>
<path d="M2533.29 345.521L2525.06 284.72L2518.66 332.492L2511.27 277.862L2501.9 347.35H2520.64L2520.41 345.521H2533.29Z" fill="url(#paint55_linear_915_8991)"/>
<path d="M2533.29 345.521L2525.06 284.72L2518.66 332.492L2511.27 277.862L2501.9 347.35H2520.64L2520.41 345.521H2533.29Z" fill="url(#paint56_linear_915_8991)"/>
<path d="M2418.47 340.34H2810.33L2638.28 410.895L2418.47 340.34Z" fill="url(#paint57_linear_915_8991)"/>
<path opacity="0.25" d="M2453.59 343.921L2550.74 347.579L2463.88 351.464L2453.59 343.921Z" fill="url(#paint58_linear_915_8991)"/>
<path opacity="0.25" d="M2480.95 354.741L2622.89 358.322L2495.88 362.208L2480.95 354.741Z" fill="url(#paint59_linear_915_8991)"/>
<path opacity="0.25" d="M2737.49 352.836L2595.54 349.179L2722.55 345.369L2737.49 352.836Z" fill="url(#paint60_linear_915_8991)"/>
<path opacity="0.25" d="M2705.64 372.494L2563.69 368.836L2690.7 365.027L2705.64 372.494Z" fill="url(#paint61_linear_915_8991)"/>
<path opacity="0.25" d="M1684.5 294.5C1684.5 294.5 1656.54 302.352 1674 308C1727 325.065 1801.93 317.291 1814.85 343.674C1830.4 375.494 1791.33 404.874 1791.33 404.874L1740.63 384.159C1740.63 384.159 1789.7 359.245 1781 345C1772.34 330.762 1668.1 322.618 1658 310.5C1647.3 297.681 1684.5 294.5 1684.5 294.5Z" fill="url(#paint62_linear_915_8991)"/>
<path d="M1523.74 344.455L1523.59 344.531L1523.66 344.836L1523.74 344.455Z" fill="url(#paint63_linear_915_8991)"/>
<path d="M1500.57 346.664L1499.51 346.741L1500.19 349.56L1500.57 346.664Z" fill="url(#paint64_linear_915_8991)"/>
<path d="M2677.75 354.588L2677.52 354.665L2675.85 344.531L2670.82 338.74L2675.54 342.55L2673.48 329.14L2670.21 325.559L2673.48 327.769L2671.2 317.635L2667.85 312.606L2671.35 316.111L2666.63 294.32L2662.36 314.74L2665.26 312.606L2662.44 316.873L2659.85 327.388L2663.73 325.483L2660.38 329.673L2657.79 341.636L2663.35 338.664L2657.94 342.855L2657.18 350.474L2661.52 347.503L2657.33 351.845V352.379L2656.19 345.217L2652.91 341.636L2656.19 343.845L2653.9 333.712L2650.55 328.683L2654.05 332.188L2649.33 310.397L2645.06 330.816L2647.96 328.683L2645.14 332.95L2642.55 343.464L2646.44 341.559L2643.08 345.75L2640.49 357.712L2646.05 354.741L2640.64 358.931L2639.88 366.551L2644.23 363.579L2640.04 367.922L2639.96 368.532L2639.2 368.836C2639.27 368.913 2639.35 368.989 2639.43 369.065C2652.68 364.113 2665.48 359.312 2677.83 354.665C2677.67 354.665 2677.75 354.588 2677.75 354.588Z" fill="#00283C"/>
<path d="M2586.78 388.189L2585.02 376.989L2581.75 373.408L2585.02 375.617L2582.74 365.484L2579.39 360.455L2582.89 363.96L2578.17 342.169L2573.9 362.589L2576.8 360.455L2573.98 364.722L2571.39 375.237L2575.27 373.332L2571.92 377.522L2570.62 383.465L2463.34 349.026L2455.5 312.759L2450.54 304.835L2454.28 306.968L2447.57 276.034L2440.03 304.835L2443.38 303.92L2438.43 310.701L2433.02 331.35L2429.59 313.673L2424.79 304.835L2428.22 306.816L2425.55 292.948L2422.51 287.005L2424.72 288.529L2419.31 260.795L2415.8 288.301L2418.62 286.929L2415.11 293.101L2413.29 307.12L2418.09 305.368L2412.37 314.359L2409.55 335.997L2407.42 327.692L2402.54 319.235L2405.97 322.13L2402.01 306.968L2399.11 301.711L2401.17 303.692L2397.44 289.444L2394.01 302.701L2395.91 301.634L2393.17 306.054L2391.95 310.701L2388.68 298.053L2384.94 292.034L2387.53 293.634L2383.57 278.548L2379.76 293.101L2382.35 292.11L2378.54 297.825L2374.88 311.997L2378.01 310.854L2373.36 317.863L2371.15 326.397L2369.55 318.321L2365.21 311.311L2368.41 312.835L2364.75 294.625L2361.7 288.91L2363.76 289.825L2359.95 270.776L2356.14 289.672L2358.2 288.91L2355.15 294.472L2351.42 313.292L2355.23 311.159L2350.35 318.549L2348.07 330.054L2343.19 305.825L2340.29 300.339L2342.35 301.634L2338.77 283.653L2335.11 302.092L2337.55 300.568L2334.35 305.825L2332.45 315.425L2326.81 293.787L2322.92 288.072L2325.97 290.587L2321.32 272.605L2316.83 289.977L2319.49 289.215L2315.84 293.863L2309.44 318.473L2305.85 300.644L2301.97 295.158L2305.17 296.377L2298.31 263.005L2291.68 296.225L2291.3 298.053L2294.65 295.996L2290.46 302.32L2284.98 329.673L2282.92 315.273L2280.41 311.768L2282.39 311.997L2278.04 285.253L2276.9 282.282L2278.27 282.815L2274.31 263.538L2270.81 282.282L2272.18 282.053L2271.03 285.71L2267.68 310.016L2271.34 309.178L2267 315.121L2265.62 325.254L2262.04 304.606L2259.38 300.492L2261.36 300.796L2256.94 275.653L2250.61 300.568L2253.28 300.034L2250.16 304.301L2244.14 329.521L2241.09 308.416L2238.96 304.758L2240.63 305.444L2237.2 282.053L2233.62 304.987L2235.53 304.606L2233.17 308.339L2226.77 349.56L2220.82 319.006L2216.86 314.435L2220.29 315.882L2214.5 275.424L2207.49 314.74L2210.77 314.206L2206.96 317.635L2202.92 333.864L2199.49 316.34L2196.21 312.073L2199.03 313.825L2194.08 288.834L2189.28 313.673L2191.79 312.301L2188.82 315.882L2182.19 350.474L2178.23 325.788L2175.49 321.978L2177.77 322.892L2173.2 294.32L2168.63 322.664L2171.6 320.378L2168.17 325.559L2163.15 356.722L2159.64 339.121L2155.45 334.473L2159.11 336.607L2152.4 303.158L2146.69 331.807L2142.04 308.72L2138.69 303.539L2141.28 304.758L2137.54 285.939L2133.81 304.454L2136.17 303.996L2133.05 308.263L2128.55 330.664L2131.45 329.75L2128.02 333.559L2127.03 338.664L2123.07 318.702L2120.94 314.816L2122.46 315.502L2119.49 300.72L2117.05 315.425L2118.5 315.273L2116.59 318.092L2113.62 336.15L2112.17 325.635L2110.42 322.283L2111.79 322.816L2109.13 303.692L2107.75 301.634L2108.9 301.711L2106.53 284.872L2104.25 301.482L2105.32 301.634L2103.94 303.463L2101.51 321.14L2103.49 320.911L2101.13 323.807L2099.98 332.035L2097.62 318.092L2095.33 314.816L2097.16 315.654L2092.59 288.453L2087.26 315.121L2090.61 314.054L2086.8 317.483L2082.53 339.045L2078.65 314.816L2075.83 311.159L2078.11 311.692L2073.7 284.186L2071.71 281.443L2073.31 282.053L2069.89 260.567L2066.46 281.901L2068.9 281.443L2066.15 284.186L2061.73 311.692L2064.55 310.93L2061.28 314.511L2056.55 343.998L2052.82 323.959L2049.09 318.092L2052.21 320.454L2045.81 285.101L2038.42 319.54L2042.15 317.33L2037.73 322.816L2034.46 337.978L2033.16 330.131L2029.35 325.864L2032.78 327.54L2028.59 301.863L2026.08 297.825L2028.21 299.501L2023.94 273.443L2018.99 299.501L2021.96 298.206L2018.68 301.482L2013.73 327.616L2017.01 326.321L2013.27 330.131L2009.08 352.379L2002.91 321.521L1999.26 317.711L2002.38 318.93L1997.05 292.339L1991.79 318.702L1994.61 318.092L1991.33 321.14L1987.6 339.883L1984.32 320.073L1980.59 315.502L1983.79 317.025L1979.29 289.672L1976.78 286.015L1978.84 287.005L1975.41 266.51L1971.98 286.777L1973.96 286.091L1971.6 289.063L1966.87 316.873V317.102L1970 315.882L1966.87 319.235L1963.6 335.997L1840.55 373.103L1839.63 367.465L1834.6 361.674L1839.33 365.484L1837.27 352.074L1833.99 348.493L1837.27 350.703L1834.98 340.569L1831.63 335.54L1835.14 339.045L1830.41 317.254L1826.15 337.674L1829.04 335.54L1826.22 339.807L1823.63 350.322L1827.52 348.417L1824.16 352.607L1821.57 364.57L1827.14 361.598L1821.73 365.789L1821.04 373.408L1825.38 370.436L1821.19 374.779L1820.89 379.122L1771.44 394.208L2189.13 537.298C2278.43 504.383 2445.97 441.753 2587.23 388.799C2586.85 388.57 2586.78 388.342 2586.78 388.189Z" fill="#00283C"/>
<path d="M2973.07 804.506L1771.14 392.685L1687.86 364.189L1686.49 355.426L1683.21 351.845L1686.49 354.055L1684.2 343.921L1680.85 338.893L1684.35 342.397L1679.63 320.606L1675.36 341.026L1678.26 338.893L1675.44 343.159L1672.85 353.674L1676.73 351.769L1673.38 355.96L1672.69 359.007L1644.5 349.331L1642.9 344.759L1646.26 348.569L1643.36 331.35L1638.33 325.559L1643.06 329.369L1641 315.959L1637.72 312.378L1641 314.587L1638.71 304.454L1635.36 299.425L1638.86 302.93L1634.14 281.139L1629.87 301.558L1632.77 299.425L1629.95 303.692L1627.36 314.206L1631.25 312.301L1627.89 316.492L1625.3 328.454L1630.86 325.483L1625.45 329.673L1624.77 337.293L1629.11 334.321L1624.92 338.664L1624.69 342.474L1592.54 329.978C1587.66 328.073 1582.25 328.302 1577.61 330.588L1549.64 344.074L1548.42 336.531L1546.14 326.168L1541.19 318.244L1544.92 320.378L1538.21 289.444L1530.67 318.244L1534.02 317.33L1529.07 324.111L1523.81 344.378L1523.74 344.759L1523.66 344.378L1520.31 327.007L1515.51 318.168L1518.94 320.149L1516.27 306.282L1513.22 300.339L1515.43 301.863L1510.02 274.129L1506.37 301.863L1509.18 300.492L1505.68 306.663L1503.85 320.683L1508.65 318.93L1502.94 327.921L1500.5 346.664L1500.12 349.56L1499.43 346.817L1497.98 341.331L1493.11 332.873L1496.54 335.769L1492.57 320.606L1489.68 315.349L1491.74 317.33L1488 303.082L1484.57 316.34L1486.48 315.273L1483.74 319.692L1482.52 324.34L1479.24 311.692L1475.51 305.673L1478.1 307.273L1474.14 292.187L1470.33 306.739L1472.92 305.749L1469.11 311.463L1465.45 325.635L1468.57 324.492L1463.93 331.502L1461.72 340.036L1460.12 331.959L1455.77 324.949L1458.97 326.473L1455.32 308.263L1452.27 302.549L1454.33 303.463L1450.52 284.415L1446.71 303.311L1448.76 302.549L1445.72 308.111L1441.98 326.93L1445.79 324.797L1440.92 332.188L1438.63 343.693L1433.75 319.463L1430.86 313.978L1432.92 315.273L1429.34 297.291L1425.68 315.73L1428.12 314.206L1424.92 319.463L1423.01 329.064L1417.37 307.425L1413.49 301.711L1416.53 304.225L1411.89 286.244L1407.39 303.615L1410.06 302.853L1406.4 307.501L1400 332.111L1396.42 314.282L1392.53 308.797L1395.73 310.016L1388.88 276.643L1382.25 309.863L1381.87 311.692L1385.22 309.635L1381.03 315.959L1375.54 343.312L1373.49 328.911L1370.97 325.407L1372.95 325.635L1368.61 298.891L1367.47 295.92L1368.84 296.453L1364.88 277.177L1361.37 295.92L1362.74 295.691L1361.6 299.349L1358.25 323.654L1361.9 322.816L1357.56 328.759L1356.19 338.893L1352.61 318.244L1349.94 314.13L1351.92 314.435L1347.5 289.291L1341.18 314.206L1343.85 313.673L1340.72 317.94L1334.7 343.159L1331.66 322.054L1329.52 318.397L1331.2 319.083L1327.77 295.691L1324.19 318.625L1326.09 318.244L1323.73 321.978L1317.33 363.198L1311.39 332.645L1307.43 328.073L1310.86 329.521L1305.06 289.063L1298.06 328.378L1301.33 327.845L1297.52 331.273L1293.48 347.502L1290.05 329.978L1286.78 325.711L1289.6 327.464L1284.65 302.473L1279.85 327.311L1282.36 325.94L1279.39 329.521L1272.76 364.112L1268.8 339.426L1266.05 335.616L1268.34 336.531L1263.77 307.958L1259.2 336.302L1262.17 334.016L1258.74 339.197L1253.71 370.36L1250.21 352.76L1246.02 348.112L1249.67 350.245L1242.97 316.797L1237.41 344.531L1232.76 321.445L1229.41 316.263L1232 317.482L1228.26 298.663L1224.53 317.178L1226.89 316.721L1223.77 320.987L1219.27 343.388L1222.17 342.474L1218.74 346.283L1217.75 351.388L1213.79 331.426L1211.65 327.54L1213.18 328.226L1210.21 313.444L1207.77 328.149L1209.21 327.997L1207.31 330.816L1204.34 348.874L1202.89 338.359L1201.14 335.007L1202.51 335.54L1199.84 316.416L1198.47 314.359L1199.61 314.435L1197.25 297.596L1194.97 314.206L1196.03 314.359L1194.66 316.187L1192.22 333.864L1194.2 333.635L1191.84 336.531L1190.7 344.759L1188.34 330.816L1186.05 327.54L1187.88 328.378L1183.31 301.177L1177.98 327.845L1181.33 326.778L1177.52 330.207L1173.25 351.769L1169.37 327.54L1166.55 323.883L1168.83 324.416L1164.41 296.91L1162.43 294.168L1164.03 294.777L1160.6 273.291L1157.18 294.625L1159.61 294.168L1156.87 296.91L1152.45 324.416L1155.27 323.654L1151.99 327.235L1147.27 356.722L1143.54 336.683L1139.8 330.816L1142.93 333.178L1136.45 298.434L1129.06 332.873L1132.79 330.664L1128.37 336.15L1125.1 351.312L1123.8 343.464L1119.99 339.197L1123.42 340.874L1119.23 315.197L1116.72 311.159L1118.85 312.835L1114.58 286.777L1109.63 312.835L1112.6 311.539L1109.33 314.816L1104.37 340.95L1107.65 339.655L1103.92 343.464L1099.73 365.712L1093.55 334.854L1089.9 331.045L1093.02 332.264L1087.69 305.673L1082.43 332.035L1085.25 331.426L1081.97 334.473L1078.24 353.217L1074.96 333.407L1071.23 328.835L1074.43 330.359L1069.93 303.006L1067.42 299.349L1069.48 300.339L1066.05 279.843L1062.62 300.111L1064.6 299.425L1062.24 302.396L1057.52 330.359L1060.64 329.14L1057.06 332.95L1055.84 340.34L1053.63 329.445L1050.58 325.483L1053.1 326.854L1049.21 307.425L1045.32 326.854L1047.61 325.407L1044.79 329.369L1039.53 365.636V365.789L1026.73 372.341C1002.81 384.608 976.37 391.008 949.474 391.008H0.799805V802.829H250.254L247.207 804.506H2973.07Z" fill="#00283C"/>
<path d="M2793.64 292.872L2796.54 298.663L2798.21 308.111L2800.19 319.311L2801.56 309.178L2804 305.901L2805.98 303.234L2802.33 304.073L2805.68 279.767L2806.82 276.11L2805.45 276.339L2808.96 257.595L2812.92 276.872L2811.55 276.339L2812.69 279.31L2816.19 301.177L2816.88 305.368L2813.83 304.301L2817.56 309.33L2819.62 323.73L2824.8 297.901L2825.11 296.377L2829.3 290.053L2825.95 292.11L2826.33 290.282L2832.96 257.062L2839.81 290.434L2836.61 289.215L2840.5 294.701L2842.02 302.396L2844 312.454L2846.14 304.149L2850.33 287.92L2853.83 281.824L2851.55 283.12L2855.81 266.738L2860.46 284.72L2857.41 282.205L2861.3 287.92L2866.94 309.558L2868.84 299.958L2872.04 294.701L2869.6 296.225L2873.26 277.786L2876.84 295.768L2874.79 294.472L2877.68 299.958L2881.49 318.854L2882.56 324.187L3014.52 369.141C3056.58 383.465 3100.7 390.78 3145.04 390.78H4095.92V802.601H3092.7V804.277H2973.07L2188.82 535.851C2302.12 494.097 2541.75 404.342 2693.29 347.502L2764.69 321.14L2764.76 320.683L2767.58 302.32L2769.94 298.587L2768.04 298.968L2771.62 276.034L2775.05 299.425L2773.37 298.739L2775.51 302.396L2777.49 315.806L2778.63 323.502L2780.76 314.587L2784.65 298.282L2787.24 292.72L2785.34 293.71L2791.43 269.634L2795.7 294.015L2793.64 292.872Z" fill="#00283C"/>
<path opacity="0.4" d="M2973.07 804.506L1771.14 392.685L1687.86 364.189L1686.49 355.426L1683.21 351.845L1686.49 354.055L1684.2 343.921L1680.85 338.893L1684.35 342.397L1679.63 320.606L1675.36 341.026L1678.26 338.893L1675.44 343.159L1672.85 353.674L1676.73 351.769L1673.38 355.96L1672.69 359.007L1644.5 349.331L1642.9 344.759L1646.26 348.569L1643.36 331.35L1638.33 325.559L1643.06 329.369L1641 315.959L1637.72 312.378L1641 314.587L1638.71 304.454L1635.36 299.425L1638.86 302.93L1634.14 281.139L1629.87 301.558L1632.77 299.425L1629.95 303.692L1627.36 314.206L1631.25 312.301L1627.89 316.492L1625.3 328.454L1630.86 325.483L1625.45 329.673L1624.77 337.293L1629.11 334.321L1624.92 338.664L1624.69 342.474L1592.54 329.978C1587.66 328.073 1582.25 328.302 1577.61 330.588L1549.64 344.074L1548.42 336.531L1546.14 326.168L1541.19 318.244L1544.92 320.378L1538.21 289.444L1530.67 318.244L1534.02 317.33L1529.07 324.111L1523.81 344.378L1523.74 344.759L1523.66 344.378L1520.31 327.007L1515.51 318.168L1518.94 320.149L1516.27 306.282L1513.22 300.339L1515.43 301.863L1510.02 274.129L1506.37 301.863L1509.18 300.492L1505.68 306.663L1503.85 320.683L1508.65 318.93L1502.94 327.921L1500.5 346.664L1500.12 349.56L1499.43 346.817L1497.98 341.331L1493.11 332.873L1496.54 335.769L1492.57 320.606L1489.68 315.349L1491.74 317.33L1488 303.082L1484.57 316.34L1486.48 315.273L1483.74 319.692L1482.52 324.34L1479.24 311.692L1475.51 305.673L1478.1 307.273L1474.14 292.187L1470.33 306.739L1472.92 305.749L1469.11 311.463L1465.45 325.635L1468.57 324.492L1463.93 331.502L1461.72 340.036L1460.12 331.959L1455.77 324.949L1458.97 326.473L1455.32 308.263L1452.27 302.549L1454.33 303.463L1450.52 284.415L1446.71 303.311L1448.76 302.549L1445.72 308.111L1441.98 326.93L1445.79 324.797L1440.92 332.188L1438.63 343.693L1433.75 319.463L1430.86 313.978L1432.92 315.273L1429.34 297.291L1425.68 315.73L1428.12 314.206L1424.92 319.463L1423.01 329.064L1417.37 307.425L1413.49 301.711L1416.53 304.225L1411.89 286.244L1407.39 303.615L1410.06 302.853L1406.4 307.501L1400 332.111L1396.42 314.282L1392.53 308.797L1395.73 310.016L1388.88 276.643L1382.25 309.863L1381.87 311.692L1385.22 309.635L1381.03 315.959L1375.54 343.312L1373.49 328.911L1370.97 325.407L1372.95 325.635L1368.61 298.891L1367.47 295.92L1368.84 296.453L1364.88 277.177L1361.37 295.92L1362.74 295.691L1361.6 299.349L1358.25 323.654L1361.9 322.816L1357.56 328.759L1356.19 338.893L1352.61 318.244L1349.94 314.13L1351.92 314.435L1347.5 289.291L1341.18 314.206L1343.85 313.673L1340.72 317.94L1334.7 343.159L1331.66 322.054L1329.52 318.397L1331.2 319.083L1327.77 295.691L1324.19 318.625L1326.09 318.244L1323.73 321.978L1317.33 363.198L1311.39 332.645L1307.43 328.073L1310.86 329.521L1305.06 289.063L1298.06 328.378L1301.33 327.845L1297.52 331.273L1293.48 347.502L1290.05 329.978L1286.78 325.711L1289.6 327.464L1284.65 302.473L1279.85 327.311L1282.36 325.94L1279.39 329.521L1272.76 364.112L1268.8 339.426L1266.05 335.616L1268.34 336.531L1263.77 307.958L1259.2 336.302L1262.17 334.016L1258.74 339.197L1253.71 370.36L1250.21 352.76L1246.02 348.112L1249.67 350.245L1242.97 316.797L1237.41 344.531L1232.76 321.445L1229.41 316.263L1232 317.482L1228.26 298.663L1224.53 317.178L1226.89 316.721L1223.77 320.987L1219.27 343.388L1222.17 342.474L1218.74 346.283L1217.75 351.388L1213.79 331.426L1211.65 327.54L1213.18 328.226L1210.21 313.444L1207.77 328.149L1209.21 327.997L1207.31 330.816L1204.34 348.874L1202.89 338.359L1201.14 335.007L1202.51 335.54L1199.84 316.416L1198.47 314.359L1199.61 314.435L1197.25 297.596L1194.97 314.206L1196.03 314.359L1194.66 316.187L1192.22 333.864L1194.2 333.635L1191.84 336.531L1190.7 344.759L1188.34 330.816L1186.05 327.54L1187.88 328.378L1183.31 301.177L1177.98 327.845L1181.33 326.778L1177.52 330.207L1173.25 351.769L1169.37 327.54L1166.55 323.883L1168.83 324.416L1164.41 296.91L1162.43 294.168L1164.03 294.777L1160.6 273.291L1157.18 294.625L1159.61 294.168L1156.87 296.91L1152.45 324.416L1155.27 323.654L1151.99 327.235L1147.27 356.722L1143.54 336.683L1139.8 330.816L1142.93 333.178L1136.45 298.434L1129.06 332.873L1132.79 330.664L1128.37 336.15L1125.1 351.312L1123.8 343.464L1119.99 339.197L1123.42 340.874L1119.23 315.197L1116.72 311.159L1118.85 312.835L1114.58 286.777L1109.63 312.835L1112.6 311.539L1109.33 314.816L1104.37 340.95L1107.65 339.655L1103.92 343.464L1099.73 365.712L1093.55 334.854L1089.9 331.045L1093.02 332.264L1087.69 305.673L1082.43 332.035L1085.25 331.426L1081.97 334.473L1078.24 353.217L1074.96 333.407L1071.23 328.835L1074.43 330.359L1069.93 303.006L1067.42 299.349L1069.48 300.339L1066.05 279.843L1062.62 300.111L1064.6 299.425L1062.24 302.396L1057.52 330.359L1060.64 329.14L1057.06 332.95L1055.84 340.34L1053.63 329.445L1050.58 325.483L1053.1 326.854L1049.21 307.425L1045.32 326.854L1047.61 325.407L1044.79 329.369L1039.53 365.636V365.789L1026.73 372.341C1002.81 384.608 976.37 391.008 949.474 391.008H203.167V802.829H250.255L423.669 804.506H2973.07Z" fill="url(#paint65_linear_915_8991)"/>
<path opacity="0.65" d="M2502.58 159.078C2503.17 159.078 2503.65 158.601 2503.65 158.012C2503.65 157.422 2503.17 156.945 2502.58 156.945C2502 156.945 2501.52 157.422 2501.52 158.012C2501.52 158.601 2502 159.078 2502.58 159.078Z" fill="#DDEADC"/>
<path opacity="0.65" d="M2466.77 120.906C2467.28 120.906 2467.69 120.496 2467.69 119.991C2467.69 119.487 2467.28 119.077 2466.77 119.077C2466.27 119.077 2465.86 119.487 2465.86 119.991C2465.86 120.496 2466.27 120.906 2466.77 120.906Z" fill="#DDEADC"/>
<path d="M1873.16 330.819L1866.46 331.057C1864.67 331.119 1861.5 332.174 1860.35 333.561C1858.62 335.671 1857.24 339.358 1859.74 344.446L1861.43 341.854L1862.28 344.691L1863.5 341.924L1864.55 344.426L1865.21 341.79L1866.41 343.327L1866.67 333.889C1866.69 333.603 1866.9 333.362 1867.18 333.311L1873.37 332.346L1873.16 330.819Z" fill="url(#paint66_linear_915_8991)"/>
<path d="M1908.95 334.335L1919.36 332.123C1919.36 332.123 1928.43 334.755 1928.78 337.146C1928.78 337.146 1925.87 340.983 1923.73 342.398L1917.32 337.206L1908.83 337.618L1908.95 334.335Z" fill="url(#paint67_linear_915_8991)"/>
<path d="M1929.34 336.251C1929.34 336.251 1926.49 334.693 1926.12 335.204C1925.87 335.56 1928.5 337.66 1928.5 337.66C1928.5 337.66 1929.22 336.608 1929.34 336.251Z" fill="url(#paint68_linear_915_8991)"/>
<path d="M1928.51 337.655C1928.51 337.655 1925.03 335.348 1924.67 335.972C1924.21 336.767 1926.96 339.435 1926.96 339.435C1926.96 339.435 1928.38 338.017 1928.51 337.655Z" fill="url(#paint69_linear_915_8991)"/>
<path d="M1891.83 336.376C1885.81 330.48 1882.57 332.916 1882.72 335.957C1882.86 338.997 1880.22 345.286 1880.22 345.286L1885.71 352.115L1888.55 359.712C1892.66 360.072 1895.77 356.989 1895.77 356.989L1891.22 350.817C1891.11 349.367 1891.83 348.035 1891.83 348.035L1892.91 349.531C1893.84 347.992 1893.97 345.728 1893.97 345.728L1895.11 347.203C1897.22 341.799 1891.83 336.376 1891.83 336.376Z" fill="url(#paint70_linear_915_8991)"/>
<path d="M1895.77 357.024C1895.77 357.024 1893.65 354.557 1893.13 354.909C1892.77 355.154 1894.47 358.05 1894.47 358.05C1894.47 358.05 1895.53 357.325 1895.77 357.024Z" fill="url(#paint71_linear_915_8991)"/>
<path d="M1894.49 358.044C1894.49 358.044 1892.06 354.649 1891.5 355.116C1890.77 355.689 1892.4 359.158 1892.4 359.158C1892.4 359.158 1894.23 358.351 1894.49 358.044Z" fill="url(#paint72_linear_915_8991)"/>
<path d="M1881.68 340.015C1875.67 334.119 1872.43 336.555 1872.57 339.596C1872.72 342.636 1870.08 348.925 1870.08 348.925L1875.56 355.754L1878.4 363.351C1882.52 363.712 1885.63 360.628 1885.63 360.628L1881.07 354.456C1880.97 353.006 1881.68 351.674 1881.68 351.674L1882.77 353.17C1883.69 351.631 1883.83 349.367 1883.83 349.367L1884.97 350.842C1887.08 345.438 1881.68 340.015 1881.68 340.015Z" fill="url(#paint73_linear_915_8991)"/>
<path d="M1885.62 360.663C1885.62 360.663 1883.51 358.196 1882.99 358.548C1882.63 358.793 1884.33 361.689 1884.33 361.689C1884.33 361.689 1885.38 360.964 1885.62 360.663Z" fill="url(#paint74_linear_915_8991)"/>
<path d="M1884.34 361.683C1884.34 361.683 1881.91 358.288 1881.35 358.755C1880.63 359.328 1882.25 362.797 1882.25 362.797C1882.25 362.797 1884.1 361.985 1884.34 361.683Z" fill="url(#paint75_linear_915_8991)"/>
<path d="M1903.23 338.091L1913.38 341.264C1913.38 341.264 1919.98 348.008 1919.09 350.26C1919.09 350.26 1914.68 352.192 1912.12 352.366L1909.08 344.691L1901.5 340.895L1903.23 338.091Z" fill="url(#paint76_linear_915_8991)"/>
<path d="M1920.03 349.76C1920.03 349.76 1918.32 346.998 1917.74 347.273C1917.34 347.45 1918.59 350.573 1918.59 350.573C1918.59 350.573 1919.74 350.013 1920.03 349.76Z" fill="url(#paint77_linear_915_8991)"/>
<path d="M1918.59 350.573C1918.59 350.573 1916.71 346.849 1916.08 347.224C1915.28 347.676 1916.37 351.354 1916.37 351.354C1916.37 351.354 1918.31 350.84 1918.59 350.573Z" fill="url(#paint78_linear_915_8991)"/>
<path d="M1876.09 323.717C1874.93 324.33 1873.97 324.904 1872.91 325.417C1870.25 326.736 1868.59 329.465 1868.65 332.419C1868.71 335.077 1868.9 338.348 1869.39 341.282C1870.15 345.741 1874.42 348.723 1878.87 347.869C1887.55 346.23 1902.06 343.586 1908.69 341.207C1918 337.869 1917.56 324.931 1915.38 319.559C1913.29 314.358 1885.44 300.981 1877.76 320.667C1877.15 322.209 1877.53 322.934 1876.09 323.717Z" fill="url(#paint79_linear_915_8991)"/>
<path d="M1882.15 317.357C1882.15 317.357 1872.35 315.762 1871.04 323.856L1872.46 322.852C1872.46 322.852 1871.52 327.406 1873.64 328.695L1874.3 325.813C1874.3 325.813 1873.13 329.953 1876.04 332.002L1876.67 328.485C1876.67 328.485 1877.98 332.134 1879.45 331.985C1879.45 331.985 1879.41 320.042 1882.15 317.357Z" fill="url(#paint80_linear_915_8991)"/>
<path d="M1915.38 330.292C1915.38 330.292 1908.16 333.379 1894.11 324.413C1883.65 317.73 1878.98 317.319 1878.98 317.319C1878.98 317.319 1879.91 315.135 1883.69 312.636C1883.69 312.636 1885.39 312.69 1894.01 316.495C1901.76 319.931 1911.75 322.138 1916.65 320.79L1915.38 330.292Z" fill="url(#paint81_linear_915_8991)"/>
<path opacity="0.25" fill-rule="evenodd" clip-rule="evenodd" d="M1880.92 314.831L1885.1 314.453L1885.31 314.435L1885.36 314.631L1886.44 318.269L1891.43 317.536L1891.6 317.511L1891.68 317.656L1893.93 321.441L1899.57 320.67L1899.75 320.644L1899.83 320.815L1902.17 326.022L1910.04 325.322L1910.18 325.31L1910.27 325.425L1913.37 329.718L1912.97 330.011L1909.94 325.833L1902.04 326.536L1901.86 326.552L1901.79 326.39L1899.45 321.19L1893.83 321.959L1893.66 321.981L1893.58 321.838L1891.34 318.055L1886.3 318.795L1886.09 318.826L1886.03 318.619L1884.94 314.97L1880.38 315.382C1880.55 315.207 1880.73 315.023 1880.92 314.831Z" fill="white"/>
<path d="M1918.62 334.953C1918.17 335.062 1917.71 334.798 1917.6 334.342L1917.24 332.868L1918.87 332.465L1919.23 333.939C1919.34 334.38 1919.06 334.844 1918.62 334.953Z" fill="url(#paint82_linear_915_8991)"/>
<path d="M1920.92 332.027L1919.81 328.522C1919.06 326.028 1917.55 324.354 1915.47 324.886C1913.02 325.516 1912.28 327.784 1912.87 330.233L1913.78 333.911C1913.77 333.896 1917.35 334.382 1920.92 332.027Z" fill="url(#paint83_linear_915_8991)"/>
<path d="M1917.5 327.582C1916.46 327.838 1915.88 329.073 1916.18 330.337C1916.26 330.704 1916.43 331.04 1916.63 331.316L1917.81 328.86L1919.99 330.493C1920.03 330.162 1920.03 329.783 1919.93 329.42C1919.62 328.142 1918.54 327.326 1917.5 327.582Z" fill="#6DBE45"/>
<path d="M1916.98 331.702C1917.45 332.114 1918.04 332.297 1918.62 332.155C1919.2 332.014 1919.64 331.575 1919.86 330.983L1918.2 330.407L1916.98 331.702Z" fill="#6DBE45"/>
<path opacity="0.25" d="M1883.07 317.508C1883.31 317.42 1883.44 317.153 1883.35 316.91C1883.26 316.667 1883 316.541 1882.75 316.629C1882.51 316.716 1882.38 316.984 1882.47 317.226C1882.56 317.469 1882.82 317.595 1883.07 317.508Z" fill="white"/>
<path opacity="0.25" d="M1887.36 316.928C1887.63 316.829 1887.78 316.526 1887.68 316.251C1887.58 315.975 1887.28 315.833 1887 315.932C1886.72 316.031 1886.58 316.334 1886.68 316.609C1886.78 316.884 1887.08 317.027 1887.36 316.928Z" fill="white"/>
<path opacity="0.25" d="M1890.81 320.421C1891.08 320.322 1891.23 320.019 1891.13 319.744C1891.03 319.468 1890.73 319.326 1890.45 319.425C1890.17 319.524 1890.03 319.827 1890.13 320.102C1890.23 320.377 1890.53 320.52 1890.81 320.421Z" fill="white"/>
<path opacity="0.25" d="M1898.28 324.188C1898.56 324.089 1898.7 323.785 1898.6 323.51C1898.5 323.235 1898.2 323.092 1897.92 323.191C1897.65 323.29 1897.5 323.594 1897.6 323.869C1897.7 324.144 1898.01 324.287 1898.28 324.188Z" fill="white"/>
<path opacity="0.25" d="M1904.22 323.719C1904.49 323.62 1904.64 323.316 1904.54 323.041C1904.44 322.766 1904.14 322.623 1903.86 322.722C1903.58 322.821 1903.44 323.125 1903.54 323.4C1903.64 323.675 1903.94 323.818 1904.22 323.719Z" fill="white"/>
<path opacity="0.25" d="M1908.88 328.845C1909.16 328.746 1909.3 328.443 1909.21 328.168C1909.11 327.893 1908.8 327.75 1908.53 327.849C1908.25 327.948 1908.11 328.251 1908.21 328.526C1908.3 328.802 1908.61 328.944 1908.88 328.845Z" fill="white"/>
<path opacity="0.25" d="M1894.82 319.973C1895.15 319.853 1895.33 319.487 1895.21 319.156C1895.09 318.824 1894.72 318.652 1894.39 318.771C1894.06 318.891 1893.88 319.256 1894 319.588C1894.12 319.92 1894.49 320.092 1894.82 319.973Z" fill="white"/>
<path d="M1903.26 310.183C1903.26 310.183 1903.64 307.484 1904.88 304.559L1898.03 302.367C1897.61 302.254 1897.3 301.901 1897.23 301.479L1897.24 291.87C1897.24 291.87 1892.27 301.341 1893.39 304.841C1894.51 308.361 1903.26 310.183 1903.26 310.183Z" fill="url(#paint84_linear_915_8991)"/>
<path d="M1914.35 313.25C1914.35 313.25 1905.18 317.796 1901.84 316.132C1898.51 314.467 1899.86 301.461 1899.86 301.461C1899.86 301.461 1906.24 299.572 1910.79 301.296L1916.63 307.122L1914.35 313.25Z" fill="url(#paint85_linear_915_8991)"/>
<path opacity="0.5" d="M1911.35 306.064C1911.24 305.57 1910.88 305.233 1910.56 305.309C1910.24 305.386 1910.08 305.848 1910.2 306.341C1910.32 306.834 1910.67 307.172 1910.99 307.096C1911.31 307.019 1911.47 306.557 1911.35 306.064Z" fill="#00283B"/>
<path d="M1909.6 315.598C1905 315.215 1903.99 311.623 1903.99 311.623L1902.84 314.335C1901.53 309.677 1904.21 306.717 1904.21 306.717L1907.78 305.121L1904.84 302.275C1907.16 302.416 1909.45 304.441 1909.45 304.441L1914.49 302.134C1908.41 296.742 1903.46 298.352 1903.46 298.352C1902.4 296.22 1903.84 294.363 1903.84 294.363C1901.33 294.753 1901.68 297.32 1901.68 297.32C1900.53 296.643 1899.26 297.146 1899.26 297.146C1900.34 297.505 1901.27 298.941 1901.27 298.941C1893.51 300.913 1888.49 306.021 1886.13 312.721L1889.07 310.908C1889.07 310.908 1886.33 315.923 1885.9 318.726L1894.28 315.602C1894.28 315.602 1892.53 319.14 1892.58 320.858L1901.62 317.999C1901.62 317.999 1900.97 320.511 1901.68 322.061L1909.6 315.598Z" fill="url(#paint86_linear_915_8991)"/>
<path d="M1895.5 311.228C1895.5 311.228 1898.02 308.125 1898.6 305.023L1892.91 302.946C1892.47 302.824 1892.12 302.453 1892.06 301.996L1892.05 291.697C1892.05 291.697 1886.73 301.842 1887.93 305.611C1889.13 309.38 1895.5 311.228 1895.5 311.228Z" fill="url(#paint87_linear_915_8991)"/>
<path d="M1905.68 318.558C1905.68 318.558 1905.09 322.423 1907.31 325.597L1907.99 322.99C1907.99 322.99 1911.94 328.004 1917.08 328.444L1915.6 324.79C1915.6 324.79 1919.82 325.394 1921.74 328.624C1921.74 328.624 1923.54 318.371 1918.12 315.933C1912.59 313.469 1905.68 318.558 1905.68 318.558Z" fill="url(#paint88_linear_915_8991)"/>
<path d="M1910.34 316.423L1910.93 317.222C1911.6 318.136 1912.77 318.577 1913.89 318.309L1917.43 317.452C1918.96 317.085 1919.89 315.561 1919.53 314.053L1919.39 313.475L1910.34 316.423Z" fill="url(#paint89_linear_915_8991)"/>
<path d="M1913.95 307.24C1913.95 307.24 1917.33 306.111 1919.29 307.31C1919.29 307.31 1922.38 313.975 1919.16 314.78C1917.06 315.303 1904.86 318.39 1904.86 318.39C1904.86 318.39 1907.12 309.229 1913.95 307.24Z" fill="url(#paint90_linear_915_8991)"/>
<path opacity="0.2" d="M1918.34 309.19C1918.25 309.123 1918.18 309.046 1918.12 308.954L1918.13 308.998C1918.05 308.911 1917.97 308.859 1917.87 308.827C1917.83 308.808 1917.77 308.814 1917.73 308.81C1917.66 308.822 1917.59 308.814 1917.51 308.826C1917.36 308.829 1917.21 308.818 1917.05 308.807C1916.9 308.796 1916.74 308.77 1916.59 308.724C1916.55 308.705 1916.52 308.667 1916.54 308.627C1916.55 308.607 1916.56 308.587 1916.59 308.576C1916.73 308.509 1916.88 308.471 1917.04 308.433C1917.19 308.395 1917.34 308.371 1917.49 308.353C1917.57 308.341 1917.65 308.33 1917.71 308.338C1917.83 308.33 1917.94 308.357 1918.03 308.39C1918.23 308.469 1918.38 308.613 1918.47 308.778L1918.49 308.822C1918.49 308.92 1918.49 309.019 1918.46 309.128C1918.44 309.168 1918.4 309.198 1918.35 309.185C1918.36 309.199 1918.35 309.185 1918.34 309.19Z" fill="#00283B"/>
</g>
<defs>
<linearGradient id="paint0_linear_915_8991" x1="1745" y1="208" x2="1745" y2="301" gradientUnits="userSpaceOnUse">
<stop stop-color="#089FB7"/>
<stop offset="1" stop-color="#0390A7"/>
</linearGradient>
<linearGradient id="paint1_linear_915_8991" x1="1554.35" y1="222.481" x2="1554.35" y2="324.591" gradientUnits="userSpaceOnUse">
<stop stop-color="#089FB7"/>
<stop offset="1" stop-color="#0390A7"/>
</linearGradient>
<linearGradient id="paint2_linear_915_8991" x1="1705.29" y1="117.618" x2="1705.29" y2="324.589" gradientUnits="userSpaceOnUse">
<stop stop-color="#089FB7"/>
<stop offset="1" stop-color="#0390A7"/>
</linearGradient>
<linearGradient id="paint3_linear_915_8991" x1="1701.89" y1="107.148" x2="1701.89" y2="117.695" gradientUnits="userSpaceOnUse">
<stop stop-color="#089FB7"/>
<stop offset="1" stop-color="#0390A7"/>
</linearGradient>
<linearGradient id="paint4_linear_915_8991" x1="1721.8" y1="105.926" x2="1721.8" y2="116.63" gradientUnits="userSpaceOnUse">
<stop stop-color="#D6E9EB"/>
<stop offset="1" stop-color="#9BCCD4"/>
</linearGradient>
<linearGradient id="paint5_linear_915_8991" x1="1721.76" y1="107.148" x2="1721.76" y2="117.696" gradientUnits="userSpaceOnUse">
<stop stop-color="#CCE9EE"/>
<stop offset="1" stop-color="#A1DAE2"/>
</linearGradient>
<linearGradient id="paint6_linear_915_8991" x1="1664.17" y1="189.691" x2="1664.17" y2="305.787" gradientUnits="userSpaceOnUse">
<stop stop-color="#089FB7"/>
<stop offset="1" stop-color="#0390A7"/>
</linearGradient>
<linearGradient id="paint7_linear_915_8991" x1="1665.51" y1="144.37" x2="1665.51" y2="178.228" gradientUnits="userSpaceOnUse">
<stop stop-color="#089FB7"/>
<stop offset="1" stop-color="#0390A7"/>
</linearGradient>
<linearGradient id="paint8_linear_915_8991" x1="1668.42" y1="144.37" x2="1668.42" y2="178.228" gradientUnits="userSpaceOnUse">
<stop stop-color="#CCE9EE"/>
<stop offset="1" stop-color="#A1DAE2"/>
</linearGradient>
<linearGradient id="paint9_linear_915_8991" x1="1667.69" y1="183.5" x2="1667.69" y2="191.22" gradientUnits="userSpaceOnUse">
<stop stop-color="#CCE9EE"/>
<stop offset="1" stop-color="#A1DAE2"/>
</linearGradient>
<linearGradient id="paint10_linear_915_8991" x1="1667.65" y1="176.01" x2="1667.65" y2="183.577" gradientUnits="userSpaceOnUse">
<stop stop-color="#CCE9EE"/>
<stop offset="1" stop-color="#A1DAE2"/>
</linearGradient>
<linearGradient id="paint11_linear_915_8991" x1="1655.31" y1="183.5" x2="1655.31" y2="191.22" gradientUnits="userSpaceOnUse">
<stop stop-color="#089FB7"/>
<stop offset="1" stop-color="#0390A7"/>
</linearGradient>
<linearGradient id="paint12_linear_915_8991" x1="1759.59" y1="194.992" x2="1759.59" y2="206.882" gradientUnits="userSpaceOnUse">
<stop stop-color="#D6E9EB"/>
<stop offset="1" stop-color="#9BCCD4"/>
</linearGradient>
<linearGradient id="paint13_linear_915_8991" x1="1759.6" y1="200.316" x2="1759.6" y2="208.035" gradientUnits="userSpaceOnUse">
<stop stop-color="#CCE9EE"/>
<stop offset="1" stop-color="#A1DAE2"/>
</linearGradient>
<linearGradient id="paint14_linear_915_8991" x1="1745.2" y1="183.577" x2="1745.2" y2="255.857" gradientUnits="userSpaceOnUse">
<stop stop-color="#9BCCD4"/>
<stop offset="0.5256" stop-color="#1E8EA1"/>
<stop offset="1" stop-color="#0B5C78"/>
</linearGradient>
<linearGradient id="paint15_linear_915_8991" x1="1745.19" y1="200.316" x2="1745.19" y2="208.035" gradientUnits="userSpaceOnUse">
<stop stop-color="#089FB7"/>
<stop offset="1" stop-color="#0390A7"/>
</linearGradient>
<linearGradient id="paint16_linear_915_8991" x1="1757.03" y1="191.421" x2="1757.03" y2="199.548" gradientUnits="userSpaceOnUse">
<stop stop-color="#D6E9EB"/>
<stop offset="1" stop-color="#9BCCD4"/>
</linearGradient>
<linearGradient id="paint17_linear_915_8991" x1="1757.04" y1="195.042" x2="1757.04" y2="200.315" gradientUnits="userSpaceOnUse">
<stop stop-color="#CCE9EE"/>
<stop offset="1" stop-color="#A1DAE2"/>
</linearGradient>
<linearGradient id="paint18_linear_915_8991" x1="1745" y1="191.568" x2="1745" y2="199.273" gradientUnits="userSpaceOnUse">
<stop stop-color="#D6E9EB"/>
<stop offset="1" stop-color="#9BCCD4"/>
</linearGradient>
<linearGradient id="paint19_linear_915_8991" x1="1745" y1="195" x2="1745" y2="200" gradientUnits="userSpaceOnUse">
<stop stop-color="#CCE9EE"/>
<stop offset="1" stop-color="#A1DAE2"/>
</linearGradient>
<linearGradient id="paint20_linear_915_8991" x1="1745" y1="195" x2="1745" y2="200" gradientUnits="userSpaceOnUse">
<stop stop-color="#089FB7"/>
<stop offset="1" stop-color="#0390A7"/>
</linearGradient>
<linearGradient id="paint21_linear_915_8991" x1="1655.31" y1="176.01" x2="1655.31" y2="183.577" gradientUnits="userSpaceOnUse">
<stop stop-color="#089FB7"/>
<stop offset="1" stop-color="#0390A7"/>
</linearGradient>
<linearGradient id="paint22_linear_915_8991" x1="1615.41" y1="163.256" x2="1615.41" y2="198.24" gradientUnits="userSpaceOnUse">
<stop stop-color="#9BCCD4"/>
<stop offset="0.5256" stop-color="#1E8EA1"/>
<stop offset="1" stop-color="#0B5C78"/>
</linearGradient>
<linearGradient id="paint23_linear_915_8991" x1="1615.41" y1="171.502" x2="1615.41" y2="182.966" gradientUnits="userSpaceOnUse">
<stop stop-color="#089FB7"/>
<stop offset="1" stop-color="#0390A7"/>
</linearGradient>
<linearGradient id="paint24_linear_915_8991" x1="1623.88" y1="313.658" x2="1623.88" y2="193.721" gradientUnits="userSpaceOnUse">
<stop stop-color="#9BCCD4"/>
<stop offset="0.5256" stop-color="#1E8EA1"/>
<stop offset="1" stop-color="#0B5C78"/>
</linearGradient>
<linearGradient id="paint25_linear_915_8991" x1="1722.01" y1="303.533" x2="1722.01" y2="216.124" gradientUnits="userSpaceOnUse">
<stop stop-color="#9BCCD4"/>
<stop offset="0.5256" stop-color="#1E8EA1"/>
<stop offset="1" stop-color="#0B5C78"/>
</linearGradient>
<linearGradient id="paint26_linear_915_8991" x1="1646.31" y1="310.104" x2="1646.31" y2="263.907" gradientUnits="userSpaceOnUse">
<stop stop-color="#9BCCD4"/>
<stop offset="0.5256" stop-color="#1E8EA1"/>
<stop offset="1" stop-color="#0B5C78"/>
</linearGradient>
<linearGradient id="paint27_linear_915_8991" x1="2154.21" y1="102.987" x2="2117.49" y2="124.23" gradientUnits="userSpaceOnUse">
<stop stop-color="#003547"/>
<stop offset="0.8305" stop-color="#00283C"/>
</linearGradient>
<linearGradient id="paint28_linear_915_8991" x1="2006.69" y1="173.317" x2="1984.23" y2="186.231" gradientUnits="userSpaceOnUse">
<stop stop-color="#003547"/>
<stop offset="0.8305" stop-color="#00283C"/>
</linearGradient>
<linearGradient id="paint29_linear_915_8991" x1="2220.86" y1="211.863" x2="2196.21" y2="248.313" gradientUnits="userSpaceOnUse">
<stop offset="0.1928" stop-color="#0B5C78"/>
<stop offset="0.8309" stop-color="#073F53"/>
</linearGradient>
<linearGradient id="paint30_linear_915_8991" x1="2185.85" y1="190.692" x2="2152.27" y2="207.148" gradientUnits="userSpaceOnUse">
<stop stop-color="#003547"/>
<stop offset="0.8305" stop-color="#00283C"/>
</linearGradient>
<linearGradient id="paint31_linear_915_8991" x1="2270.66" y1="169.968" x2="2237.08" y2="186.424" gradientUnits="userSpaceOnUse">
<stop stop-color="#003547"/>
<stop offset="0.8305" stop-color="#00283C"/>
</linearGradient>
<linearGradient id="paint32_linear_915_8991" x1="1610.25" y1="264.862" x2="1596.15" y2="285.709" gradientUnits="userSpaceOnUse">
<stop offset="0.1928" stop-color="#0B5C78"/>
<stop offset="0.8309" stop-color="#073F53"/>
</linearGradient>
<linearGradient id="paint33_linear_915_8991" x1="1590.26" y1="252.725" x2="1571.05" y2="262.132" gradientUnits="userSpaceOnUse">
<stop stop-color="#003547"/>
<stop offset="0.8305" stop-color="#00283C"/>
</linearGradient>
<linearGradient id="paint34_linear_915_8991" x1="2330.85" y1="204.595" x2="2330.85" y2="276.241" gradientUnits="userSpaceOnUse">
<stop stop-color="#9BCCD4"/>
<stop offset="0.5256" stop-color="#1E8EA1"/>
<stop offset="1" stop-color="#0B5C78"/>
</linearGradient>
<linearGradient id="paint35_linear_915_8991" x1="1460.43" y1="133.425" x2="1437.85" y2="138.07" gradientUnits="userSpaceOnUse">
<stop stop-color="#003547"/>
<stop offset="0.8305" stop-color="#00283C"/>
</linearGradient>
<linearGradient id="paint36_linear_915_8991" x1="1520.1" y1="180.585" x2="1496.74" y2="274.858" gradientUnits="userSpaceOnUse">
<stop offset="0.1928" stop-color="#0B5C78"/>
<stop offset="0.8309" stop-color="#073F53"/>
</linearGradient>
<linearGradient id="paint37_linear_915_8991" x1="1493.12" y1="169.997" x2="1470.53" y2="174.642" gradientUnits="userSpaceOnUse">
<stop stop-color="#003547"/>
<stop offset="0.8305" stop-color="#00283C"/>
</linearGradient>
<linearGradient id="paint38_linear_915_8991" x1="1413.65" y1="167.559" x2="1391.06" y2="172.204" gradientUnits="userSpaceOnUse">
<stop stop-color="#003547"/>
<stop offset="0.8305" stop-color="#00283C"/>
</linearGradient>
<linearGradient id="paint39_linear_915_8991" x1="2484.15" y1="117.902" x2="2457.74" y2="209.232" gradientUnits="userSpaceOnUse">
<stop offset="0.1928" stop-color="#0B5C78"/>
<stop offset="0.8309" stop-color="#073F53"/>
</linearGradient>
<linearGradient id="paint40_linear_915_8991" x1="2455.77" y1="125.566" x2="2436.56" y2="129.96" gradientUnits="userSpaceOnUse">
<stop stop-color="#003547"/>
<stop offset="0.8305" stop-color="#00283C"/>
</linearGradient>
<linearGradient id="paint41_linear_915_8991" x1="2538.91" y1="130.17" x2="2512.49" y2="221.5" gradientUnits="userSpaceOnUse">
<stop offset="0.1928" stop-color="#0B5C78"/>
<stop offset="0.8309" stop-color="#073F53"/>
</linearGradient>
<linearGradient id="paint42_linear_915_8991" x1="2510.48" y1="137.833" x2="2491.27" y2="142.226" gradientUnits="userSpaceOnUse">
<stop stop-color="#003547"/>
<stop offset="0.8305" stop-color="#00283C"/>
</linearGradient>
<linearGradient id="paint43_linear_915_8991" x1="2513.92" y1="90.1671" x2="2487.5" y2="181.497" gradientUnits="userSpaceOnUse">
<stop offset="0.1928" stop-color="#0B5C78"/>
<stop offset="0.8309" stop-color="#073F53"/>
</linearGradient>
<linearGradient id="paint44_linear_915_8991" x1="2485.49" y1="97.8316" x2="2466.28" y2="102.225" gradientUnits="userSpaceOnUse">
<stop stop-color="#003547"/>
<stop offset="0.8305" stop-color="#00283C"/>
</linearGradient>
<linearGradient id="paint45_linear_915_8991" x1="2457.07" y1="101.914" x2="2430.65" y2="204.565" gradientUnits="userSpaceOnUse">
<stop offset="0.1928" stop-color="#0B5C78"/>
<stop offset="0.8309" stop-color="#073F53"/>
</linearGradient>
<linearGradient id="paint46_linear_915_8991" x1="2419.92" y1="86.4205" x2="2388.06" y2="93.4849" gradientUnits="userSpaceOnUse">
<stop stop-color="#003547"/>
<stop offset="0.8305" stop-color="#00283C"/>
</linearGradient>
<linearGradient id="paint47_linear_915_8991" x1="1977.98" y1="240.137" x2="1977.98" y2="1086.71" gradientUnits="userSpaceOnUse">
<stop stop-color="#6FBE44"/>
<stop offset="0.5598" stop-color="#1B824D"/>
<stop offset="1" stop-color="#1A4238"/>
</linearGradient>
<linearGradient id="paint48_linear_915_8991" x1="2627.25" y1="284.069" x2="2627.25" y2="358.627" gradientUnits="userSpaceOnUse">
<stop offset="0.1928" stop-color="#0B5C78"/>
<stop offset="0.8309" stop-color="#073F53"/>
</linearGradient>
<linearGradient id="paint49_linear_915_8991" x1="2627.9" y1="292.131" x2="2622.21" y2="292.893" gradientUnits="userSpaceOnUse">
<stop stop-color="#003547"/>
<stop offset="0.8305" stop-color="#00283C"/>
</linearGradient>
<linearGradient id="paint50_linear_915_8991" x1="2689.68" y1="308.674" x2="2689.68" y2="350.7" gradientUnits="userSpaceOnUse">
<stop offset="0.1928" stop-color="#0B5C78"/>
<stop offset="0.8309" stop-color="#073F53"/>
</linearGradient>
<linearGradient id="paint51_linear_915_8991" x1="2543.17" y1="301.205" x2="2543.17" y2="352.131" gradientUnits="userSpaceOnUse">
<stop offset="0.1928" stop-color="#0B5C78"/>
<stop offset="0.8309" stop-color="#073F53"/>
</linearGradient>
<linearGradient id="paint52_linear_915_8991" x1="2543.65" y1="306.768" x2="2539.75" y2="307.292" gradientUnits="userSpaceOnUse">
<stop stop-color="#003547"/>
<stop offset="0.8305" stop-color="#00283C"/>
</linearGradient>
<linearGradient id="paint53_linear_915_8991" x1="2599.43" y1="274.436" x2="2599.43" y2="361.333" gradientUnits="userSpaceOnUse">
<stop offset="0.1928" stop-color="#0B5C78"/>
<stop offset="0.8309" stop-color="#073F53"/>
</linearGradient>
<linearGradient id="paint54_linear_915_8991" x1="2600.64" y1="283.856" x2="2590.52" y2="285.975" gradientUnits="userSpaceOnUse">
<stop stop-color="#003547"/>
<stop offset="0.8305" stop-color="#00283C"/>
</linearGradient>
<linearGradient id="paint55_linear_915_8991" x1="2517.59" y1="266.424" x2="2517.59" y2="362.868" gradientUnits="userSpaceOnUse">
<stop offset="0.1928" stop-color="#0B5C78"/>
<stop offset="0.8309" stop-color="#073F53"/>
</linearGradient>
<linearGradient id="paint56_linear_915_8991" x1="2519.04" y1="276.904" x2="2507.07" y2="279.594" gradientUnits="userSpaceOnUse">
<stop stop-color="#003547"/>
<stop offset="0.8305" stop-color="#00283C"/>
</linearGradient>
<linearGradient id="paint57_linear_915_8991" x1="2614.41" y1="319.599" x2="2614.41" y2="370.275" gradientUnits="userSpaceOnUse">
<stop stop-color="#D6E9EB"/>
<stop offset="1" stop-color="#9BCCD4"/>
</linearGradient>
<linearGradient id="paint58_linear_915_8991" x1="2425.06" y1="347.691" x2="2480.16" y2="347.691" gradientUnits="userSpaceOnUse">
<stop stop-color="#D6E9EB"/>
<stop offset="0.6678" stop-color="#9BCCD4"/>
<stop offset="0.9978" stop-color="#118C9F"/>
</linearGradient>
<linearGradient id="paint59_linear_915_8991" x1="2439.2" y1="358.487" x2="2519.73" y2="358.487" gradientUnits="userSpaceOnUse">
<stop stop-color="#D6E9EB"/>
<stop offset="0.6678" stop-color="#9BCCD4"/>
<stop offset="0.9978" stop-color="#118C9F"/>
</linearGradient>
<linearGradient id="paint60_linear_915_8991" x1="2779.22" y1="349.077" x2="2698.69" y2="349.077" gradientUnits="userSpaceOnUse">
<stop stop-color="#D6E9EB"/>
<stop offset="0.6678" stop-color="#9BCCD4"/>
<stop offset="0.9978" stop-color="#118C9F"/>
</linearGradient>
<linearGradient id="paint61_linear_915_8991" x1="2747.39" y1="368.728" x2="2666.86" y2="368.728" gradientUnits="userSpaceOnUse">
<stop stop-color="#D6E9EB"/>
<stop offset="0.6678" stop-color="#9BCCD4"/>
<stop offset="0.9978" stop-color="#118C9F"/>
</linearGradient>
<linearGradient id="paint62_linear_915_8991" x1="1638.97" y1="287.228" x2="1848.35" y2="365.329" gradientUnits="userSpaceOnUse">
<stop stop-color="#1B824D"/>
<stop offset="1" stop-color="#1A4238"/>
</linearGradient>
<linearGradient id="paint63_linear_915_8991" x1="1523.65" y1="408.484" x2="1523.65" y2="729.803" gradientUnits="userSpaceOnUse">
<stop offset="1.61076e-05" stop-color="#003547"/>
<stop offset="0.8305" stop-color="#00283C"/>
</linearGradient>
<linearGradient id="paint64_linear_915_8991" x1="1500.03" y1="408.484" x2="1500.03" y2="729.805" gradientUnits="userSpaceOnUse">
<stop offset="1.61076e-05" stop-color="#003547"/>
<stop offset="0.8305" stop-color="#00283C"/>
</linearGradient>
<linearGradient id="paint65_linear_915_8991" x1="1716.12" y1="265.968" x2="1572.39" y2="638.628" gradientUnits="userSpaceOnUse">
<stop stop-color="#003547"/>
<stop offset="0.8305" stop-color="#00283C"/>
</linearGradient>
<linearGradient id="paint66_linear_915_8991" x1="1864.72" y1="331.322" x2="1867.77" y2="343.629" gradientUnits="userSpaceOnUse">
<stop offset="0.0150687" stop-color="#345362"/>
<stop offset="1" stop-color="#00283B"/>
</linearGradient>
<linearGradient id="paint67_linear_915_8991" x1="1931.95" y1="339.769" x2="1915.94" y2="335.84" gradientUnits="userSpaceOnUse">
<stop offset="0.0150687" stop-color="#345362"/>
<stop offset="1" stop-color="#00283B"/>
</linearGradient>
<linearGradient id="paint68_linear_915_8991" x1="1928.57" y1="335.351" x2="1927.12" y2="336.591" gradientUnits="userSpaceOnUse">
<stop stop-color="#99A9B1"/>
<stop offset="1" stop-color="#4F6E75"/>
</linearGradient>
<linearGradient id="paint69_linear_915_8991" x1="1927.39" y1="336.35" x2="1925.55" y2="337.92" gradientUnits="userSpaceOnUse">
<stop stop-color="#99A9B1"/>
<stop offset="1" stop-color="#4F6E75"/>
</linearGradient>
<linearGradient id="paint70_linear_915_8991" x1="1891.81" y1="363.106" x2="1889.12" y2="350.337" gradientUnits="userSpaceOnUse">
<stop offset="0.0150687" stop-color="#345362"/>
<stop offset="1" stop-color="#00283B"/>
</linearGradient>
<linearGradient id="paint71_linear_915_8991" x1="1895.37" y1="355.91" x2="1893.57" y2="356.554" gradientUnits="userSpaceOnUse">
<stop stop-color="#99A9B1"/>
<stop offset="1" stop-color="#4F6E75"/>
</linearGradient>
<linearGradient id="paint72_linear_915_8991" x1="1893.9" y1="356.426" x2="1891.63" y2="357.242" gradientUnits="userSpaceOnUse">
<stop stop-color="#99A9B1"/>
<stop offset="1" stop-color="#4F6E75"/>
</linearGradient>
<linearGradient id="paint73_linear_915_8991" x1="1886.45" y1="310.771" x2="1874.08" y2="375.143" gradientUnits="userSpaceOnUse">
<stop offset="0.0150687" stop-color="#345362"/>
<stop offset="1" stop-color="#00283B"/>
</linearGradient>
<linearGradient id="paint74_linear_915_8991" x1="1885.23" y1="359.547" x2="1883.43" y2="360.191" gradientUnits="userSpaceOnUse">
<stop stop-color="#99A9B1"/>
<stop offset="1" stop-color="#4F6E75"/>
</linearGradient>
<linearGradient id="paint75_linear_915_8991" x1="1883.76" y1="360.063" x2="1881.49" y2="360.879" gradientUnits="userSpaceOnUse">
<stop stop-color="#99A9B1"/>
<stop offset="1" stop-color="#4F6E75"/>
</linearGradient>
<linearGradient id="paint76_linear_915_8991" x1="1909.79" y1="317.162" x2="1911.21" y2="382.658" gradientUnits="userSpaceOnUse">
<stop offset="0.0150687" stop-color="#345362"/>
<stop offset="1" stop-color="#00283B"/>
</linearGradient>
<linearGradient id="paint77_linear_915_8991" x1="1919.79" y1="348.597" x2="1917.92" y2="348.962" gradientUnits="userSpaceOnUse">
<stop stop-color="#99A9B1"/>
<stop offset="1" stop-color="#4F6E75"/>
</linearGradient>
<linearGradient id="paint78_linear_915_8991" x1="1918.27" y1="348.887" x2="1915.9" y2="349.348" gradientUnits="userSpaceOnUse">
<stop stop-color="#99A9B1"/>
<stop offset="1" stop-color="#4F6E75"/>
</linearGradient>
<linearGradient id="paint79_linear_915_8991" x1="1896.14" y1="312.632" x2="1883.77" y2="377.005" gradientUnits="userSpaceOnUse">
<stop offset="0.0150687" stop-color="#345362"/>
<stop offset="1" stop-color="#00283B"/>
</linearGradient>
<linearGradient id="paint80_linear_915_8991" x1="1875.18" y1="318.801" x2="1879.93" y2="326.662" gradientUnits="userSpaceOnUse">
<stop stop-color="#FED10D"/>
<stop offset="1" stop-color="#F05625"/>
</linearGradient>
<linearGradient id="paint81_linear_915_8991" x1="1861.7" y1="303.888" x2="1901.15" y2="321.274" gradientUnits="userSpaceOnUse">
<stop stop-color="#98D0DD"/>
<stop offset="1" stop-color="#059EB6"/>
</linearGradient>
<linearGradient id="paint82_linear_915_8991" x1="1917.82" y1="331.707" x2="1918.67" y2="335.168" gradientUnits="userSpaceOnUse">
<stop offset="0.5083" stop-color="#98D0DD"/>
<stop offset="1" stop-color="#E6F5F6"/>
</linearGradient>
<linearGradient id="paint83_linear_915_8991" x1="1917.96" y1="335.447" x2="1915.88" y2="326.993" gradientUnits="userSpaceOnUse">
<stop stop-color="#98D0DD"/>
<stop offset="1" stop-color="#E6F5F6"/>
</linearGradient>
<linearGradient id="paint84_linear_915_8991" x1="1900.03" y1="291.586" x2="1898.27" y2="314.447" gradientUnits="userSpaceOnUse">
<stop stop-color="#99A9B1"/>
<stop offset="0.4827" stop-color="#4F6E75"/>
</linearGradient>
<linearGradient id="paint85_linear_915_8991" x1="1906.02" y1="300.279" x2="1912.35" y2="326.622" gradientUnits="userSpaceOnUse">
<stop stop-color="#99A9B1"/>
<stop offset="0.4827" stop-color="#4F6E75"/>
</linearGradient>
<linearGradient id="paint86_linear_915_8991" x1="1898.1" y1="301.657" x2="1902.14" y2="318.441" gradientUnits="userSpaceOnUse">
<stop offset="0.0150687" stop-color="#345362"/>
<stop offset="1" stop-color="#00283B"/>
</linearGradient>
<linearGradient id="paint87_linear_915_8991" x1="1892.96" y1="291.464" x2="1893.55" y2="322.788" gradientUnits="userSpaceOnUse">
<stop stop-color="#99A9B1"/>
<stop offset="0.4827" stop-color="#4F6E75"/>
</linearGradient>
<linearGradient id="paint88_linear_915_8991" x1="1918.14" y1="316.528" x2="1913.14" y2="324.251" gradientUnits="userSpaceOnUse">
<stop offset="0.0150687" stop-color="#345362"/>
<stop offset="1" stop-color="#00283B"/>
</linearGradient>
<linearGradient id="paint89_linear_915_8991" x1="1915.69" y1="318.375" x2="1914.57" y2="313.708" gradientUnits="userSpaceOnUse">
<stop stop-color="#99A9B1"/>
<stop offset="0.4827" stop-color="#4F6E75"/>
</linearGradient>
<linearGradient id="paint90_linear_915_8991" x1="1912.87" y1="306.939" x2="1912.6" y2="327.099" gradientUnits="userSpaceOnUse">
<stop stop-color="#99A9B1"/>
<stop offset="0.4827" stop-color="#4F6E75"/>
</linearGradient>
<clipPath id="clip0_915_8991">
<rect width="4096" height="480" fill="white"/>
</clipPath>
<clipPath id="clip1_915_8991">
<rect width="400" height="222.222" fill="white" transform="translate(1476 79)"/>
</clipPath>
</defs>
</svg>
