<svg xmlns="http://www.w3.org/2000/svg" xmlns:xlink="http://www.w3.org/1999/xlink" width="500" zoomAndPan="magnify" viewBox="0 0 375 374.999991" height="500" preserveAspectRatio="xMidYMid meet" version="1.0"><defs><clipPath id="52632e4144"><path d="M 174 78.914062 L 375 78.914062 L 375 369.914062 L 174 369.914062 Z M 174 78.914062 " clip-rule="nonzero"/></clipPath><clipPath id="0a6f754d68"><path d="M 0 173 L 255 173 L 255 369.914062 L 0 369.914062 Z M 0 173 " clip-rule="nonzero"/></clipPath><clipPath id="282ee92241"><path d="M 145 72 L 191 72 L 191 120 L 145 120 Z M 145 72 " clip-rule="nonzero"/></clipPath><clipPath id="ce0c35bcf9"><path d="M 134.125 103.769531 L 156.066406 56.652344 L 190.042969 72.476562 L 168.105469 119.589844 Z M 134.125 103.769531 " clip-rule="nonzero"/></clipPath><clipPath id="7e376dfdc4"><path d="M 145.09375 80.21875 L 190.035156 72.492188 L 168.105469 119.589844 Z M 145.09375 80.21875 " clip-rule="nonzero"/></clipPath><clipPath id="113a53dd26"><path d="M 127 76 L 171 76 L 171 118 L 127 118 Z M 127 76 " clip-rule="nonzero"/></clipPath><clipPath id="f628c16d96"><path d="M 141.597656 133.339844 L 114.28125 100.648438 L 142.839844 76.777344 L 170.160156 109.46875 Z M 141.597656 133.339844 " clip-rule="nonzero"/></clipPath><clipPath id="1f6e0d7bb8"><path d="M 127.960938 117.015625 L 142.882812 76.828125 L 170.160156 109.46875 Z M 127.960938 117.015625 " clip-rule="nonzero"/></clipPath><clipPath id="6b6de1c9b3"><path d="M 142 72 L 191 72 L 191 115 L 142 115 Z M 142 72 " clip-rule="nonzero"/></clipPath><clipPath id="a24aff7e4a"><path d="M 129.566406 93.417969 L 155.882812 50.925781 L 190.089844 72.109375 L 163.777344 114.601562 Z M 129.566406 93.417969 " clip-rule="nonzero"/></clipPath><clipPath id="cc4a2151ba"><path d="M 142.699219 72.214844 L 190.039062 72.195312 L 163.777344 114.601562 Z M 142.699219 72.214844 " clip-rule="nonzero"/></clipPath></defs><g clip-path="url(#52632e4144)"><path fill="#0097b2" d="M 374.9375 285.066406 C 374.9375 307.621094 366.152344 328.824219 350.207031 344.777344 C 334.261719 360.722656 313.050781 369.546875 290.496094 369.546875 L 243.21875 369.546875 L 263.46875 328.125 L 290.488281 328.125 C 314.210938 328.125 333.511719 308.828125 333.511719 285.113281 C 333.511719 261.398438 314.210938 242.097656 290.488281 242.097656 L 255.761719 242.097656 C 233.972656 242.097656 213.484375 233.582031 198.074219 218.171875 C 182.667969 202.765625 174.179688 182.253906 174.179688 160.457031 C 174.179688 138.664062 182.667969 118.195312 198.074219 102.789062 C 213.484375 87.371094 233.972656 78.914062 255.761719 78.914062 L 346.359375 78.914062 L 298.410156 177.003906 C 295.792969 176.8125 255.761719 176.699219 255.761719 176.699219 C 254.675781 176.699219 253.613281 176.601562 252.582031 176.394531 L 279.996094 120.335938 L 255.761719 120.335938 C 233.625 120.335938 215.605469 138.359375 215.605469 160.496094 C 215.605469 182.632812 233.617188 200.65625 255.761719 200.65625 L 290.488281 200.65625 C 313.042969 200.65625 334.253906 209.402344 350.199219 225.347656 C 366.152344 241.308594 374.9375 262.515625 374.9375 285.066406 Z M 374.9375 285.066406 " fill-opacity="1" fill-rule="nonzero"/></g><g clip-path="url(#0a6f754d68)"><path fill="#004aad" d="M 254.941406 265.933594 L 204.320312 369.539062 L 191.90625 369.539062 L 119.050781 220.488281 L 46.191406 369.539062 L 0.0859375 369.539062 L 96.109375 173.21875 L 96.109375 173.332031 L 142.105469 173.332031 L 198.113281 287.875 L 213.171875 256.992188 C 226.175781 262.726562 240.320312 265.828125 254.941406 265.933594 Z M 254.941406 265.933594 " fill-opacity="1" fill-rule="nonzero"/></g><path stroke-linecap="butt" transform="matrix(0.317888, -0.679299, 0.679299, 0.317888, 93.699476, 177.751102)" fill="none" stroke-linejoin="miter" d="M -0.00242732 28.499806 L 154.454699 28.501986 " stroke="#004aad" stroke-width="57" stroke-opacity="1" stroke-miterlimit="4"/><g clip-path="url(#282ee92241)"><g clip-path="url(#ce0c35bcf9)"><g clip-path="url(#7e376dfdc4)"><path fill="#004aad" d="M 134.125 103.769531 L 156.066406 56.652344 L 190.042969 72.476562 L 168.105469 119.589844 Z M 134.125 103.769531 " fill-opacity="1" fill-rule="nonzero"/></g></g></g><g clip-path="url(#113a53dd26)"><g clip-path="url(#f628c16d96)"><g clip-path="url(#1f6e0d7bb8)"><path fill="#004aad" d="M 141.597656 133.339844 L 114.28125 100.648438 L 142.839844 76.777344 L 170.160156 109.46875 Z M 141.597656 133.339844 " fill-opacity="1" fill-rule="nonzero"/></g></g></g><g clip-path="url(#6b6de1c9b3)"><g clip-path="url(#a24aff7e4a)"><g clip-path="url(#cc4a2151ba)"><path fill="#004aad" d="M 129.566406 93.417969 L 155.800781 51.058594 L 190.007812 72.242188 L 163.777344 114.601562 Z M 129.566406 93.417969 " fill-opacity="1" fill-rule="nonzero"/></g></g></g></svg>